<svg xmlns="http://www.w3.org/2000/svg" xmlns:xlink="http://www.w3.org/1999/xlink" width="291.054" height="281.962" viewBox="0 0 291.054 281.962">
  <defs>
    <clipPath id="clip-path">
      <rect id="Rectangle_171" data-name="Rectangle 171" width="184.538" height="225.685" transform="matrix(0.588, -0.809, 0.809, 0.588, 0, 149.274)" fill="none"/>
    </clipPath>
    <clipPath id="clip-path-2">
      <rect id="Rectangle_172" data-name="Rectangle 172" width="291.054" height="281.962" fill="none"/>
    </clipPath>
  </defs>
  <g id="Group_180" data-name="Group 180" transform="translate(0)">
    <g id="Group_173" data-name="Group 173">
      <g id="Group_172" data-name="Group 172" clip-path="url(#clip-path)">
        <path id="Path_144" data-name="Path 144" d="M32.6,104.443A119.913,119.913,0,0,1,249.4,190l-80.261-11.162a38.316,38.316,0,0,0-5.826-26.366,38.923,38.923,0,0,0-64.474-1.362Z" fill="#fff"/>
      </g>
    </g>
    <g id="Group_175" data-name="Group 175">
      <g id="Group_174" data-name="Group 174" clip-path="url(#clip-path-2)">
        <path id="Path_145" data-name="Path 145" d="M105.384,103.65a24.545,24.545,0,0,1,3.371-5.212c1.1-1.428,1.674-2.469,1.163-3.875a2.592,2.592,0,0,0-3.573-1.617,2.742,2.742,0,0,0-1.756,1.569,3.755,3.755,0,0,0,.132,2.792l-2.79,1.012a5.573,5.573,0,0,1,3.726-7.741c3.374-1.225,6.139.121,7.136,2.867.825,2.272-.08,3.825-1.36,5.562-1.153,1.813-2.995,3.683-3.361,5.577l.04.108,7.614-2.763.894,2.466-11.334,4.114a6.761,6.761,0,0,1,.1-4.859" fill="#040504"/>
        <path id="Path_146" data-name="Path 146" d="M118.125,97.613c-.469-3.628,1.609-6.75,5.215-7.217a5.555,5.555,0,0,1,4.42,1.169,7.731,7.731,0,0,1,2.437,5.206l-9.105,1.178c.476,2.073,1.778,3.342,3.809,3.08a2.642,2.642,0,0,0,2.486-1.945l2.829-.366c-.309,2.267-2.063,4.141-5.052,4.527-3.879.5-6.573-2.026-7.039-5.632m2.776-1.5,6.07-.785c-.374-1.994-1.6-3.065-3.36-2.837-1.894.245-2.707,1.672-2.71,3.622" fill="#040504"/>
        <path id="Path_147" data-name="Path 147" d="M140.143,96.158c.658-3.6,3.587-5.936,7.161-5.282a5.559,5.559,0,0,1,3.852,2.459,7.724,7.724,0,0,1,.733,5.7l-9.024-1.653c-.178,2.119.675,3.724,2.686,4.092a2.642,2.642,0,0,0,2.96-1.094l2.8.514c-.987,2.063-3.226,3.314-6.188,2.771-3.846-.7-5.64-3.932-4.985-7.505m3.1-.579,6.017,1.1c.252-2.011-.593-3.4-2.335-3.723-1.877-.344-3.085.768-3.682,2.622m5.013-9.765,3.393.621-3.012,3.049-2.218-.406Z" fill="#040504"/>
        <path id="Path_148" data-name="Path 148" d="M155.318,99.148c1.521-3.6,4.557-5.114,7.439-3.9a4.265,4.265,0,0,1,2.659,3.4l.042.018c.218-.633.551-1.54.909-2.387l1.575-3.728,2.69,1.137-6.659,15.759-2.605-1.1.7-1.652-.042-.018a4.056,4.056,0,0,1-4.324.544c-2.988-1.262-3.94-4.386-2.382-8.071m8.451,3.571c.958-2.267.643-4.3-1.349-5.138-1.821-.77-3.42.477-4.36,2.7-.957,2.267-.7,4.2,1.121,4.968,1.991.841,3.649-.306,4.588-2.53" fill="#040504"/>
      </g>
    </g>
    <path id="Path_149" data-name="Path 149" d="M173.608,100.419l2.372,1.472-6.192,9.977-2.372-1.473Zm2.4-3.947,2.429,1.507-1.426,2.3-2.429-1.507Z" fill="#040504"/>
    <g id="Group_177" data-name="Group 177">
      <g id="Group_176" data-name="Group 176" clip-path="url(#clip-path-2)">
        <path id="Path_150" data-name="Path 150" d="M179.106,103.864l1.416,1.118,2.318-2.935L185,103.752l-2.319,2.935,1.848,1.459-1.187,1.5-1.847-1.459-4.077,5.163c-.533.673-.32,1.149.3,1.64a5.486,5.486,0,0,0,.763.49l.1.082-1.35,1.709a9.927,9.927,0,0,1-1.561-1.008c-1.484-1.172-2.08-2.512-.8-4.135l4.458-5.646-1.416-1.119Z" fill="#040504"/>
      </g>
    </g>
    <path id="Path_151" data-name="Path 151" d="M187.654,111l1.983,1.968-8.279,8.337-1.983-1.969Zm3.226-3.31,2.029,2.016L191,111.625l-2.029-2.016Z" fill="#040504"/>
    <g id="Group_179" data-name="Group 179">
      <g id="Group_178" data-name="Group 178" clip-path="url(#clip-path-2)">
        <path id="Path_152" data-name="Path 152" d="M187.4,119.812a6.129,6.129,0,0,1,8.942,1.232c2.256,3.079,1.4,6.7-1.548,8.859-2.931,2.147-6.658,1.885-8.914-1.194a6.142,6.142,0,0,1,1.52-8.9m5.641,7.7c2-1.468,2.808-3.481,1.544-5.207-1.278-1.744-3.428-1.565-5.431-.1-1.984,1.454-2.785,3.436-1.507,5.18,1.264,1.726,3.41,1.579,5.394.125" fill="#040504"/>
        <path id="Path_153" data-name="Path 153" d="M202.016,134.253l.027.063a4.2,4.2,0,0,1,3.476,2.645,3.93,3.93,0,0,1-2.214,5.6l-7.625,3.352-1.176-2.674,7.183-3.158a2.153,2.153,0,0,0,1.2-3.094,2.776,2.776,0,0,0-3.858-1.344l-6.593,2.9-1.177-2.675,11.249-4.945,1.149,2.611Z" fill="#040504"/>
      </g>
    </g>
  </g>
</svg>
