<svg xmlns="http://www.w3.org/2000/svg" xmlns:xlink="http://www.w3.org/1999/xlink" width="291.018" height="281.917" viewBox="0 0 291.018 281.917">
  <defs>
    <clipPath id="clip-path">
      <rect id="Rectangle_78" data-name="Rectangle 78" width="225.659" height="184.517" fill="none"/>
    </clipPath>
  </defs>
  <g id="Group_118" data-name="Group 118" transform="matrix(0.809, 0.588, -0.588, 0.809, 108.457, 0)">
    <g id="Group_117" data-name="Group 117" transform="translate(0 0)">
      <g id="Group_116" data-name="Group 116" clip-path="url(#clip-path)">
        <path id="Path_31" data-name="Path 31" d="M.013,121.651A119.9,119.9,0,0,1,225.659,63.4l-71.478,38.155a38.312,38.312,0,0,0-20.212-17.9,38.92,38.92,0,0,0-52.949,36.8Z" transform="translate(0 7.441)" fill="#fff"/>
      </g>
    </g>
    <text id="_2" data-name="2" transform="matrix(0.56, -0.829, 0.829, 0.56, 60.741, 90.317)" font-size="23" font-family="NHaasGroteskTXPro-65Md, Neue Haas Grotesk Text Pro" font-weight="500"><tspan x="0" y="0">2</tspan></text>
    <text id="e" transform="matrix(0.727, -0.687, 0.687, 0.727, 68.858, 78.229)" font-size="23" font-family="NHaasGroteskTXPro-65Md, Neue Haas Grotesk Text Pro" font-weight="500"><tspan x="0" y="0">e</tspan></text>
    <text id="_" data-name=" " transform="translate(78.297 66.999) rotate(-34.472)" font-size="21" font-family="NHaasGroteskTXPro-65Md, Neue Haas Grotesk Text Pro" font-weight="500"><tspan x="0" y="0"> </tspan></text>
    <text id="é" transform="translate(84.129 64.992) rotate(-25.636)" font-size="23" font-family="NHaasGroteskTXPro-65Md, Neue Haas Grotesk Text Pro" font-weight="500"><tspan x="0" y="0">é</tspan></text>
    <text id="d" transform="translate(96.848 58.786) rotate(-13.103)" font-size="23" font-family="NHaasGroteskTXPro-65Md, Neue Haas Grotesk Text Pro" font-weight="500"><tspan x="0" y="0">d</tspan></text>
    <text id="i" transform="matrix(0.997, -0.073, 0.073, 0.997, 111.282, 54.744)" font-size="22" font-family="NHaasGroteskTXPro-65Md, Neue Haas Grotesk Text Pro" font-weight="500"><tspan x="0" y="0">i</tspan></text>
    <text id="t" transform="translate(117.128 54.214) rotate(2.289)" font-size="22" font-family="NHaasGroteskTXPro-65Md, Neue Haas Grotesk Text Pro" font-weight="500"><tspan x="0" y="0">t</tspan></text>
    <text id="i-2" data-name="i" transform="translate(126.221 54.658) rotate(8.793)" font-size="22" font-family="NHaasGroteskTXPro-65Md, Neue Haas Grotesk Text Pro" font-weight="500"><tspan x="0" y="0">i</tspan></text>
    <text id="o" transform="translate(131.711 56.126) rotate(17.761)" font-size="23" font-family="NHaasGroteskTXPro-65Md, Neue Haas Grotesk Text Pro" font-weight="500"><tspan x="0" y="0">o</tspan></text>
    <text id="n" transform="matrix(0.864, 0.504, -0.504, 0.864, 145.66, 60.562)" font-size="23" font-family="NHaasGroteskTXPro-65Md, Neue Haas Grotesk Text Pro" font-weight="500"><tspan x="0" y="0">n</tspan></text>
  </g>
</svg>
