<?xml version="1.0" encoding="utf-8"?>
<!-- Generator: Adobe Illustrator 27.9.0, SVG Export Plug-In . SVG Version: 6.00 Build 0)  -->
<svg version="1.1" id="Layer_1" xmlns="http://www.w3.org/2000/svg" xmlns:xlink="http://www.w3.org/1999/xlink" x="0px" y="0px"
	 viewBox="0 0 291.1 282.4" style="enable-background:new 0 0 291.1 282.4;" xml:space="preserve">
<style type="text/css">
	.st0{clip-path:url(#SVGID_00000116939053620821104680000017999394997272663200_);}
	.st1{fill:#FFFFFF;}
	.st2{enable-background:new    ;}
</style>
<g id="Group_118" transform="matrix(0.809, 0.588, -0.588, 0.809, 108.457, 0)">
	<g id="Group_117" transform="translate(0 0)">
		<g>
			<defs>
				
					<rect id="SVGID_1_" x="20.8" y="-20.3" transform="matrix(0.5879 -0.8089 0.8089 0.5879 -28.2706 129.6286)" width="184.5" height="225.7"/>
			</defs>
			<clipPath id="SVGID_00000048474748753789135860000010911469656576596370_">
				<use xlink:href="#SVGID_1_"  style="overflow:visible;"/>
			</clipPath>
			<g id="Group_116" style="clip-path:url(#SVGID_00000048474748753789135860000010911469656576596370_);">
				<path id="Path_31" class="st1" d="M0.3,129.4C-0.7,63.2,52.2,8.7,118.4,7.7c44.9-0.7,86.4,23.8,107.5,63.4l-71.5,38.2
					c-4.3-8.2-11.5-14.6-20.2-17.9c-20-7.7-42.6,2.2-50.3,22.3c-1.8,4.6-2.7,9.6-2.6,14.5L0.3,129.4z"/>
			</g>
		</g>
	</g>
	<g class="st2">
		<path d="M58.7,86c-0.5-2-0.4-4.3-0.3-6.2c0-1.8-0.1-3-1.3-3.8c-1.4-0.9-2.9-0.7-3.8,0.8c-0.5,0.8-0.7,1.6-0.5,2.3
			c0.2,0.8,0.8,1.5,1.7,2.2l-1.7,2.5c-1.4-1-2.2-2-2.6-3.3c-0.5-1.5-0.1-3.3,1.1-5.1c2-3,5-3.5,7.5-1.9c2,1.4,2.2,3.1,2.2,5.3
			c0.1,2.1-0.3,4.7,0.6,6.5l0.1,0.1l4.5-6.7l2.2,1.5l-6.7,10C59.8,88.8,59.1,87.5,58.7,86z"/>
	</g>
	<g class="st2">
		<path d="M65.4,73.6c-2.5-2.7-2.7-6.4,0-8.9c1.3-1.2,2.8-1.7,4.3-1.7c1.7,0.1,3.5,1.1,5,2.8L68,72.1c1.6,1.4,3.4,1.7,4.9,0.3
			c1-1,1.3-2,0.9-3l2.1-2c1.1,2,0.8,4.6-1.4,6.6C71.6,76.7,67.9,76.2,65.4,73.6z M66.8,70.8l4.4-4.2c-1.5-1.4-3.1-1.5-4.4-0.3
			C65.5,67.5,65.7,69.2,66.8,70.8z"/>
	</g>
	<g class="st2">
		<path d="M82.4,59.5c-1.6-3.3-0.6-6.9,2.7-8.5c1.6-0.8,3.2-0.8,4.6-0.3c1.6,0.6,3,2.1,3.9,4.2l-8.3,4c1.1,1.8,2.7,2.6,4.6,1.7
			c1.3-0.6,1.8-1.5,1.8-2.6l2.6-1.2c0.4,2.2-0.7,4.6-3.4,5.9C87.3,64.3,84,62.7,82.4,59.5z M84.6,57.2l5.5-2.6
			c-1-1.8-2.5-2.4-4.1-1.6C84.3,53.7,84,55.3,84.6,57.2z M82.9,46.3l3.1-1.5l-0.6,4.2l-2,1L82.9,46.3z"/>
	</g>
	<g class="st2">
		<path d="M96.4,53c-0.9-3.8,0.7-6.8,3.7-7.5c1.7-0.4,3.1,0.1,4.1,1.2l0,0c-0.2-0.6-0.5-1.6-0.7-2.5l-0.9-3.9l2.8-0.7l3.9,16.7
			l-2.8,0.6l-0.4-1.7l0,0c-0.4,1.6-1.5,2.6-3.2,3C99.9,58.8,97.3,56.9,96.4,53z M105.4,50.9c-0.6-2.4-2-3.9-4.1-3.4
			c-1.9,0.4-2.5,2.4-1.9,4.7c0.6,2.4,1.9,3.8,3.8,3.4C105.2,55.1,105.9,53.2,105.4,50.9z"/>
	</g>
	<g class="st2">
		<path d="M112,43.2l2.8-0.2l0.9,11.7l-2.8,0.2L112,43.2z M111.6,38.6l2.9-0.2l0.2,2.7l-2.9,0.2L111.6,38.6z"/>
	</g>
	<g class="st2">
		<path d="M118.4,42.8l1.8,0.1l0.1-3.7l2.7,0.1L123,43l2.4,0.1l-0.1,1.9l-2.4-0.1l-0.3,6.6c0,0.9,0.4,1.1,1.2,1.1
			c0.3,0,0.7,0,0.9-0.1l0.1,0l-0.1,2.2c-0.5,0.1-1.1,0.1-1.9,0.1c-1.9-0.1-3.2-0.8-3.1-2.9l0.3-7.2l-1.8-0.1L118.4,42.8z"/>
	</g>
	<g class="st2">
		<path d="M129.5,43.5l2.8,0.4l-1.8,11.6l-2.8-0.4L129.5,43.5z M130.2,39l2.8,0.4l-0.4,2.7l-2.8-0.4L130.2,39z"/>
	</g>
	<g class="st2">
		<path d="M134.5,50.8c1.1-3.5,4.3-5.4,8-4.3c3.6,1.2,5.1,4.6,4,8.1c-1.1,3.5-4.3,5.4-7.9,4.3C134.9,57.7,133.4,54.3,134.5,50.8z
			 M143.6,53.7c0.8-2.4,0.2-4.5-1.8-5.1c-2.1-0.7-3.7,0.7-4.4,3.1c-0.8,2.3-0.2,4.4,1.8,5.1C141.2,57.5,142.9,56.1,143.6,53.7z"/>
	</g>
	<g class="st2">
		<path d="M154.8,53.9L154.8,53.9c1.4-0.7,2.9-0.7,4.4,0.1c2.3,1.3,2.8,3.5,1.5,5.8l-4.2,7.2l-2.5-1.5l4-6.8
			c0.7-1.3,0.4-2.5-0.8-3.2c-1.4-0.8-3-0.3-3.9,1.2l-3.6,6.2l-2.5-1.5l6.2-10.6l2.5,1.4L154.8,53.9z"/>
	</g>
</g>
</svg>
