<?xml version="1.0" encoding="UTF-8"?><svg id="b" xmlns="http://www.w3.org/2000/svg" viewBox="0 0 744.68 369.2"><g id="c"><g><polygon points="53.74 369.2 684.33 193.49 630.22 0 0 176.59 53.74 369.2" style="fill:#fff;"/><g><rect x="517.46" y="185.45" width="223.57" height="70.12" transform="translate(-23.63 85.13) rotate(-7.6)" style="fill:#ec1a8d;"/><g><polygon points="637.17 234.06 626.46 235.49 623.01 209.62 628.7 208.86 631.71 231.44 636.74 230.77 637.17 234.06"/><g><path d="m650.74,227.77c.2,1.5-.27,2.74-1.4,3.72-1.14.98-2.66,1.6-4.59,1.85s-3.54.08-4.85-.52c-1.42-.66-2.23-1.75-2.43-3.25l-2.87-21.51,5.65-.75,2.91,21.8c.03.25.14.43.33.54.19.11.44.15.78.1s.57-.14.7-.3c.14-.16.19-.36.15-.6l-2.91-21.8,5.65-.75,2.86,21.47Z"/><polygon points="664.44 230.42 653.72 231.85 650.27 205.98 655.96 205.22 658.97 227.8 664 227.13 664.44 230.42"/><path d="m678,224.13c.2,1.5-.27,2.74-1.4,3.72-1.14.98-2.66,1.6-4.59,1.85s-3.54.08-4.84-.52c-1.42-.66-2.23-1.75-2.43-3.25l-2.87-21.51,5.65-.75,2.91,21.8c.03.25.14.43.33.54.19.11.44.15.78.1s.57-.14.7-.3c.14-.16.19-.36.15-.6l-2.91-21.8,5.65-.75,2.86,21.47Z"/><rect x="692.19" y="192.24" width="2.89" height="42.61" transform="translate(-22.14 93.58) rotate(-7.6)"/><path d="m710.83,230.58l-.16-1.23,1.81,1.29.1.75-1.75-.81Zm5.82.1l.79-.11c.18-.02.32-.09.4-.21.09-.12.12-.26.09-.44-.03-.22-.11-.36-.25-.41-.14-.05-.27-.08-.41-.08l-.16-1.16c.24-.03.48-.02.7.03.22.05.42.14.59.28.18.13.33.3.45.5.12.2.2.44.23.7.05.36.01.68-.11.96-.12.28-.29.5-.52.67-.14.1-.31.18-.5.24-.19.06-.41.1-.64.13l-1.91.25c-.24.03-.45.04-.66.04-.2,0-.38-.04-.55-.1-.27-.1-.5-.27-.68-.51-.19-.24-.3-.54-.35-.89-.04-.27-.02-.51.04-.74.06-.23.17-.43.31-.6.14-.17.32-.31.53-.42.21-.11.44-.18.69-.21l1.6-.21.31,2.31Zm-.91.12l-.15-1.14-.66.09c-.22.03-.38.1-.48.22-.1.12-.13.26-.11.44s.1.31.22.39c.12.09.3.12.52.09l.66-.09Z"/><path d="m709.76,222.55l-.16-1.23,1.81,1.29.1.75-1.75-.81Zm5.82.09l.79-.11c.18-.02.32-.09.4-.21.09-.12.12-.26.09-.44-.03-.22-.11-.36-.25-.41-.14-.05-.27-.08-.41-.08l-.16-1.16c.24-.03.48-.02.7.03.22.05.42.14.59.28.18.13.33.3.45.5.12.2.2.44.23.7.05.36.01.68-.11.96-.12.28-.29.5-.52.67-.14.1-.31.18-.5.24-.19.06-.41.1-.64.13l-1.91.25c-.24.03-.45.04-.66.04-.2,0-.38-.04-.55-.1-.27-.1-.5-.27-.68-.51-.19-.24-.3-.54-.35-.89-.04-.27-.02-.51.04-.74.06-.23.17-.43.31-.6.14-.17.32-.31.53-.42.21-.11.44-.18.69-.21l1.6-.21.31,2.31Zm-.91.12l-.15-1.14-.66.09c-.22.03-.38.1-.48.22-.1.12-.13.26-.11.44s.1.31.22.39c.12.09.3.12.52.09l.66-.09Z"/><polygon points="718.43 225.28 718.57 226.31 712.98 228.59 712.82 227.35 716.41 226.08 716.41 226.06 712.61 225.78 712.44 224.55 718.43 225.28"/><path d="m711.83,219.92l-.16-1.16.56-.07v-.02c-.2-.1-.37-.22-.51-.38-.14-.16-.23-.37-.26-.63-.02-.14-.01-.29.02-.44.03-.15.1-.29.19-.42.1-.13.23-.24.4-.33.17-.09.38-.16.64-.19l4.44-.59.16,1.16-4.01.53c-.21.03-.37.1-.48.22-.11.12-.15.26-.13.45.03.22.12.36.27.43.15.07.35.08.61.05l3.89-.52.16,1.16-5.79.77Z"/><path d="m714.43,213.98l.79-.11c.18-.02.32-.09.4-.21.09-.12.12-.26.09-.44-.03-.22-.11-.36-.25-.41-.14-.06-.27-.08-.41-.08l-.16-1.16c.24-.03.48-.02.7.03.22.05.42.14.59.27.18.13.33.3.45.5.12.2.2.44.23.7.05.36.01.68-.11.96-.12.28-.29.5-.52.67-.14.1-.31.18-.5.24-.19.06-.41.1-.64.13l-1.91.25c-.24.03-.45.04-.66.04-.2,0-.38-.04-.55-.1-.27-.1-.5-.27-.68-.51-.19-.24-.3-.54-.35-.89-.04-.27-.02-.51.04-.74.06-.23.17-.43.31-.6.14-.17.32-.31.53-.42.21-.11.44-.18.69-.21l1.6-.21.31,2.31Zm-.91.12l-.15-1.14-.66.09c-.22.03-.38.1-.48.22-.1.12-.13.26-.11.44s.1.31.22.39c.12.09.3.12.52.09l.66-.09Z"/><path d="m710.67,211.26l-.16-1.17.56-.07v-.02c-.2-.1-.37-.22-.51-.38-.14-.16-.23-.37-.26-.63-.03-.25,0-.47.1-.65.1-.18.21-.34.35-.46-.18-.12-.34-.26-.47-.42-.14-.16-.23-.4-.27-.71-.02-.14-.01-.3.01-.46.03-.16.09-.31.19-.44.1-.14.23-.25.4-.35.17-.1.38-.17.64-.2l4.44-.59.16,1.16-4.01.53c-.21.03-.37.1-.48.22-.11.12-.15.26-.13.45.03.22.12.36.27.43.15.07.35.08.61.05l3.89-.52.16,1.16-4.01.53c-.21.03-.37.1-.48.21-.11.12-.15.26-.13.45.03.22.12.36.27.43.15.07.35.08.61.05l3.89-.52.16,1.17-5.79.77Z"/><path d="m712.96,203l.79-.11c.18-.02.32-.09.4-.21.09-.12.12-.26.09-.44-.03-.22-.11-.36-.25-.41-.14-.06-.27-.08-.41-.08l-.16-1.16c.24-.03.48-.02.7.03.22.05.42.14.59.28.18.13.33.3.45.5.12.2.2.44.23.7.05.36.01.68-.11.96-.12.28-.29.5-.52.67-.14.1-.31.18-.5.24-.19.06-.41.1-.64.13l-1.91.25c-.24.03-.45.05-.66.04-.2,0-.38-.04-.55-.1-.27-.1-.5-.27-.68-.51-.19-.24-.3-.54-.35-.89-.04-.27-.02-.51.04-.74.06-.23.17-.43.31-.6.14-.17.32-.31.53-.42.21-.11.44-.18.69-.21l1.6-.21.31,2.31Zm-.91.12l-.15-1.14-.66.09c-.22.03-.38.1-.48.22-.1.12-.13.26-.11.44s.1.31.22.39c.12.09.3.12.52.09l.66-.09Z"/><path d="m709.21,200.28l-.16-1.17.56-.07v-.02c-.2-.1-.37-.22-.51-.38-.14-.16-.23-.37-.26-.63-.02-.14-.01-.29.02-.44.03-.15.1-.29.19-.42.1-.13.23-.24.4-.33.17-.09.38-.16.64-.19l4.44-.59.16,1.16-4.01.53c-.21.03-.37.1-.48.22-.11.12-.15.26-.13.45.03.22.12.36.27.43.15.07.35.08.61.05l3.89-.52.16,1.17-5.79.77Z"/><path d="m706.86,196.07l-.16-1.16,1.76-.23-.1-.72.91-.12.1.72,3.21-.43c.14-.02.24-.05.31-.08.07-.04.13-.09.16-.15.03-.06.04-.14.04-.23,0-.09-.02-.2-.03-.33l1.1-.15.06.48c.04.27.02.49-.04.68-.06.19-.15.35-.26.47-.12.12-.25.22-.41.29-.16.07-.31.12-.46.14l-3.52.47.08.58-.91.12-.08-.58-1.76.23Z"/><path d="m709.64,191.18c-.2.03-.34.12-.42.25-.08.13-.12.27-.1.42.02.18.1.32.23.4.13.08.27.11.42.09.11-.01.21-.05.3-.12.1-.07.17-.22.22-.45l.18-.72c.11-.46.3-.79.57-.99.27-.2.57-.33.92-.37.24-.03.47-.02.7.04.22.06.42.15.6.29.18.13.33.3.45.5.12.2.2.43.23.68.03.23.02.45-.03.67-.05.22-.13.41-.26.59-.12.18-.29.33-.49.45-.2.13-.45.22-.74.26l-.15-1.1c.16-.04.3-.12.42-.23.12-.1.17-.27.14-.49-.02-.17-.1-.31-.22-.43-.13-.12-.29-.16-.49-.14-.16.02-.29.08-.39.18-.1.1-.18.27-.24.5l-.13.59c-.09.38-.25.7-.5.94-.24.24-.56.39-.95.44-.24.03-.48.02-.7-.05-.22-.06-.42-.16-.59-.3-.17-.14-.31-.3-.42-.5-.11-.19-.18-.41-.21-.64s-.02-.46.04-.67c.06-.21.16-.4.29-.57.13-.16.29-.3.49-.41.2-.11.42-.18.65-.21l.15,1.1Z"/></g></g><g><path d="m543.04,232.28l1.36-.18.12.88h.03c.17-.37.39-.66.66-.88.27-.21.62-.35,1.04-.4.38-.05.74-.02,1.08.08.33.11.63.28.89.52.26.24.47.55.65.92.17.37.29.79.35,1.26.06.48.06.92-.01,1.32-.07.4-.2.75-.38,1.05-.18.3-.43.55-.73.74-.3.19-.65.31-1.05.37-.4.05-.76.02-1.09-.1-.33-.12-.6-.32-.83-.6h-.03c.03.11.06.26.09.45.03.19.07.42.1.7l.21,1.58-1.41.19-1.05-7.9Zm3.59,4.59c.23-.03.43-.11.6-.23.17-.12.3-.28.39-.47s.16-.42.19-.67c.03-.25.03-.52-.01-.81-.04-.3-.1-.56-.2-.8-.09-.24-.21-.44-.36-.6-.15-.16-.31-.28-.5-.36s-.41-.1-.65-.06c-.27.04-.49.12-.67.25-.18.13-.33.3-.43.5-.1.2-.17.43-.2.68-.03.25-.03.52.01.8.04.28.1.54.2.77.09.23.22.43.37.59.15.16.33.28.54.36.21.08.45.1.72.06Z"/><path d="m551.31,232.26h.03c.27-.82.79-1.28,1.54-1.38.17-.02.3-.02.38,0l.17,1.26h-.04c-.12,0-.25,0-.39.01-.47.06-.83.26-1.1.6-.27.35-.37.81-.29,1.37l.4,2.97-1.41.19-.79-5.91,1.36-.18.14,1.06Z"/><path d="m557.55,236.54c-.47.06-.91.04-1.3-.07-.39-.11-.74-.29-1.04-.54s-.54-.55-.72-.91c-.19-.36-.31-.76-.37-1.2-.06-.44-.04-.86.05-1.26.09-.4.25-.76.47-1.07.22-.32.5-.58.84-.78.34-.21.73-.34,1.16-.4s.83-.04,1.19.06c.36.1.68.26.96.5.33.27.59.62.79,1.05.2.43.33.92.4,1.47l-4.42.59c.12.5.34.89.65,1.17.31.28.71.38,1.21.32.34-.05.61-.15.81-.32s.33-.38.39-.63l1.37-.18c-.04.28-.12.54-.24.78-.12.25-.29.47-.49.66-.21.2-.45.36-.74.49-.29.13-.61.22-.97.27Zm-.77-5.22c-.47.06-.8.25-1.01.57-.21.32-.31.72-.3,1.19l2.95-.39c-.09-.48-.28-.85-.57-1.09-.28-.24-.64-.34-1.07-.28Zm-.46-3.5l1.66-.22-.94,1.86-1.09.14.36-1.78Z"/><path d="m563.71,235.73c-.85.11-1.53.02-2.05-.29-.52-.31-.84-.76-.96-1.35l1.35-.18c.11.35.3.58.57.71.27.13.6.16.97.11.39-.05.67-.17.83-.34.16-.17.23-.38.2-.62-.02-.15-.07-.26-.16-.35-.09-.08-.2-.15-.34-.19-.14-.05-.31-.08-.5-.09-.19-.02-.41-.03-.64-.04-.29-.01-.57-.04-.83-.08-.27-.04-.51-.11-.73-.21-.22-.1-.4-.25-.55-.44-.15-.19-.25-.46-.29-.79-.04-.28-.01-.54.07-.77.08-.23.22-.44.4-.62.18-.18.41-.33.69-.44.28-.12.59-.2.94-.24.79-.11,1.41-.02,1.85.24.45.27.74.65.88,1.16l-1.34.18c-.17-.51-.6-.72-1.28-.63-.33.04-.57.14-.72.3-.15.16-.21.34-.18.54.02.13.07.24.15.31.09.07.2.13.34.16.14.04.31.06.5.07.19.01.4.03.62.04.29.01.57.04.84.07.28.03.53.11.76.22.23.11.42.27.58.48.16.21.26.49.31.85.04.31.01.59-.08.85-.09.25-.24.47-.45.66-.2.19-.46.34-.76.47-.3.12-.63.21-.99.26Z"/><path d="m569.99,234.88c-.47.06-.91.04-1.3-.07-.39-.11-.74-.29-1.04-.54s-.54-.55-.73-.91c-.19-.36-.31-.76-.37-1.2-.06-.44-.04-.86.05-1.26.09-.4.25-.76.47-1.07.22-.32.5-.58.84-.78.34-.21.73-.34,1.16-.4s.83-.04,1.19.06c.35.1.68.27.96.5.33.27.59.62.79,1.05s.33.92.4,1.47l-4.42.59c.12.5.34.89.65,1.17.31.28.71.38,1.21.32.34-.05.61-.15.81-.32.2-.17.33-.38.39-.63l1.37-.18c-.04.28-.12.54-.24.78-.12.25-.29.47-.49.66-.21.2-.45.36-.74.49-.29.13-.61.22-.97.27Zm-.78-5.22c-.47.06-.8.25-1.01.57-.21.32-.31.72-.3,1.19l2.95-.39c-.09-.48-.28-.85-.57-1.09-.28-.24-.64-.34-1.07-.28Z"/><path d="m574.46,228.97h.03c.15-.36.36-.65.65-.86.28-.21.64-.35,1.06-.41.64-.09,1.17.03,1.57.35.41.32.65.8.74,1.44l.53,4.01-1.41.19-.5-3.78c-.05-.35-.18-.62-.4-.79-.22-.17-.51-.24-.88-.19-.2.03-.38.09-.53.18-.15.09-.28.21-.38.36-.1.14-.17.31-.22.5-.04.19-.05.38-.02.59l.46,3.47-1.41.19-.79-5.91,1.37-.18.12.86Z"/><path d="m579.03,227.48l.91-.12-.25-1.88,1.38-.18.25,1.88,1.18-.16.13.96-1.18.16.44,3.31c.03.21.1.35.22.42.12.06.28.08.48.05.07,0,.15-.02.24-.04.08-.02.15-.04.21-.06h.07s.15,1.09.15,1.09c-.12.04-.25.08-.4.12-.15.04-.33.07-.52.1-.24.03-.46.04-.66.01-.21-.02-.39-.08-.54-.16-.15-.09-.28-.22-.38-.38-.1-.17-.17-.38-.2-.64l-.48-3.62-.91.12-.13-.96Z"/><path d="m587.02,232.61c-.47.06-.91.04-1.3-.07-.4-.11-.74-.29-1.04-.54-.3-.25-.54-.55-.72-.91s-.31-.76-.37-1.2c-.06-.44-.04-.86.05-1.26.09-.4.25-.76.47-1.07.22-.32.5-.58.84-.78.34-.21.73-.34,1.16-.4s.83-.04,1.19.06c.35.1.68.27.96.5.33.27.59.62.79,1.05.2.43.33.92.4,1.47l-4.42.59c.12.5.33.89.65,1.17.31.28.71.38,1.21.32.34-.05.61-.15.81-.32.2-.17.33-.38.4-.63l1.37-.18c-.04.28-.12.54-.24.78-.12.25-.29.47-.49.66-.21.2-.45.36-.74.49-.29.13-.61.22-.97.27Zm-.77-5.22c-.47.06-.8.25-1.01.57-.21.32-.31.72-.3,1.19l2.95-.39c-.09-.48-.28-.85-.57-1.09-.28-.24-.64-.34-1.07-.28Zm-.46-3.5l1.66-.22-.94,1.86-1.08.15.36-1.78Z"/><path d="m592.79,225.64l1.36-.18.12.88h.03c.17-.37.39-.66.66-.88.27-.21.62-.35,1.04-.4.38-.05.74-.02,1.08.08.33.11.63.28.89.52.26.24.47.55.65.92.17.37.29.79.35,1.26.06.48.06.92,0,1.32-.07.4-.2.75-.38,1.05-.19.3-.43.55-.73.74-.3.19-.65.31-1.05.37-.4.05-.76.02-1.09-.1-.33-.12-.6-.32-.83-.6h-.03c.03.11.06.26.09.45.03.19.07.42.1.7l.21,1.58-1.41.19-1.05-7.9Zm3.59,4.59c.23-.03.43-.11.6-.23.17-.12.3-.28.39-.47.09-.19.16-.42.19-.67.03-.25.03-.52-.01-.81-.04-.3-.1-.56-.2-.8-.09-.24-.21-.44-.36-.6-.15-.16-.31-.28-.5-.36-.19-.08-.41-.1-.65-.06-.27.04-.49.12-.67.25-.18.13-.33.3-.43.5-.1.2-.17.43-.2.68-.03.25-.03.52.01.8.04.28.1.54.2.77.09.23.22.43.37.59.15.16.33.28.54.36.21.08.45.1.72.06Z"/><path d="m604.18,230.14c-.06-.06-.12-.15-.17-.27-.05-.12-.09-.27-.14-.47h-.02c-.16.29-.37.53-.63.75-.26.21-.63.35-1.11.41-.29.04-.56.04-.82,0-.26-.04-.48-.12-.68-.25-.2-.12-.36-.29-.49-.49-.13-.2-.22-.45-.26-.74-.04-.33-.02-.62.07-.85.09-.23.24-.43.43-.59.2-.16.44-.3.72-.41.29-.11.6-.21.95-.3.48-.12.83-.26,1.06-.4.23-.14.33-.34.29-.61-.03-.26-.15-.45-.35-.58-.2-.13-.47-.17-.83-.13-.4.05-.69.18-.86.37-.17.2-.25.44-.22.74l-1.33.18c-.03-.25,0-.5.08-.75.08-.25.21-.47.39-.68.19-.21.43-.38.72-.53.3-.15.65-.25,1.07-.31.34-.05.64-.06.91-.04.27.02.51.08.72.17.61.26.96.79,1.07,1.57l.42,3.11c.03.24.08.43.14.56.06.13.12.21.2.24v.1s-1.35.18-1.35.18Zm-1.78-.6c.24-.03.45-.1.63-.2.17-.1.32-.22.42-.36.11-.14.19-.29.23-.46.05-.17.06-.34.03-.51l-.12-.88c-.13.11-.29.21-.49.3-.2.09-.4.17-.61.25-.42.14-.75.29-.97.45-.22.16-.31.4-.26.73.02.16.07.28.14.38.07.1.16.17.26.23.1.05.22.08.34.09.13,0,.26,0,.39-.01Z"/><path d="m607.34,224.79h.03c.27-.82.79-1.28,1.54-1.38.17-.02.3-.02.38,0l.17,1.26h-.04c-.12,0-.25,0-.39.01-.47.05-.83.26-1.1.6-.27.35-.37.81-.29,1.37l.4,2.97-1.41.19-.79-5.91,1.36-.18.14,1.06Z"/></g></g><g><g><rect x="203.12" y="215.97" width="16.24" height="77.9" transform="translate(-60.77 66.19) rotate(-15.6)"/><path d="m251.64,234.01c3.91,14.02-4.28,28.55-18.3,32.47-14.02,3.91-28.56-4.28-32.47-18.29s4.28-28.56,18.3-32.47c14.02-3.91,28.56,4.28,32.47,18.3Z" style="fill:#35b999;"/></g><g><rect x="318.89" y="183.2" width="16.47" height="56.02" transform="translate(-44.75 95.75) rotate(-15.6)"/><path d="m319.21,213.6c-.85-3.01-1.11-6.12-.77-9.25,1.46-13.31,13.47-22.95,26.78-21.49,5.78.63,11.14,3.32,15.1,7.56l-12,11.2c-.91-.97-2.49-2.19-4.89-2.45-4.32-.47-8.21,2.65-8.69,6.97-.11,1.02-.03,2.03.24,3l-15.79,4.46Z" style="fill:#ebe50d;"/></g><g><rect x="369.39" y="169.13" width="16.24" height="56.02" transform="translate(-39.11 108.78) rotate(-15.6)" style="fill:#35b999;"/><path d="m374.71,152.58c1.28,4.59-1.4,9.34-5.98,10.62-4.58,1.28-9.34-1.4-10.62-5.98s1.4-9.34,5.98-10.62c4.58-1.28,9.34,1.4,10.62,5.98Z"/></g><g><polygon points="465.33 162.82 460.33 144.93 444.69 149.3 459.75 203.26 502.2 191.41 492.13 155.33 465.33 162.82"/><path d="m492.37,156.13c2.39,8.55-2.61,17.42-11.16,19.81-8.55,2.39-17.42-2.61-19.81-11.16-2.39-8.55,2.61-17.42,11.16-19.81,8.55-2.39,17.42,2.61,19.81,11.16Z" style="fill:#ebe50d;"/></g><g><path d="m426.21,211.73c-14.93,4.17-30.47-4.59-34.64-19.52-.04-.13-.07-.26-.1-.39l.04.16,16.89-4.48s.02.07.03.11c1.62,5.59,7.47,8.86,13.08,7.29,3.88-1.08,6.78-4.21,7.58-8.16l17.13,3.45c-2.1,10.43-9.77,18.68-20.01,21.54Z"/><path d="m411.36,158.57c-14.87,4.15-23.58,19.53-19.52,34.4l54.04-15.09c-4.24-14.82-19.65-23.46-34.52-19.31Z" style="fill:#ec1a8d;"/></g><g><path d="m593.83,164.93c-14.93,4.17-30.47-4.59-34.64-19.52-.04-.13-.07-.26-.1-.39l.04.16,16.89-4.48s.02.07.03.11c1.62,5.59,7.47,8.86,13.08,7.29,3.88-1.08,6.78-4.21,7.58-8.16l17.13,3.45c-2.1,10.43-9.77,18.68-20.01,21.54Z"/><path d="m578.99,111.77c-14.87,4.15-23.58,19.53-19.52,34.4l54.04-15.09c-4.24-14.82-19.65-23.46-34.52-19.31Z" style="fill:#ec1a8d;"/></g><g><path d="m536.83,180.84c-15.01,4.19-30.64-4.61-34.83-19.63-.04-.13.11-.32.08-.45l.08.2,16.76-4.49s.01.21.02.25c1.63,5.62,7.51,8.77,13.16,7.19,3.9-1.09,6.82-4.23,7.62-8.21l17.22,3.47c-2.11,10.48-9.82,18.78-20.12,21.66Z" style="fill:#35b999;"/><path d="m502.34,162.43c-.04-.13.03.13,0,0-4.19-15.01,4.61-30.64,19.62-34.83,10.3-2.87,21.19.23,28.43,8.1l-12.93,11.89c-2.74-2.99-6.87-4.16-10.77-3.07-5.65,1.58-8.98,7.43-7.46,13.08.01.04.02.07.03.11l-8.4,2.35-8.52,2.36Z"/></g><g><polygon points="150.02 231.4 131.17 236.67 182 280.04 200.86 274.77 150.02 231.4" style="fill:#ebe50d;"/><polygon points="167.17 226.61 146.15 290.04 165.01 284.78 186.03 221.35 167.17 226.61"/></g><g><polygon points="101.22 286.16 92.89 256.31 126.09 247.04 118.3 219.15 85.1 228.42 69.46 232.79 69.45 232.79 77.24 260.68 77.24 260.68 85.58 290.52 89.93 306.13 89.94 306.17 138.79 292.53 134.43 276.89 101.22 286.16"/><rect x="78.78" y="255.66" width="34.81" height="16.27" transform="translate(-67.4 35.58) rotate(-15.6)" style="fill:#ec1a8d;"/></g><g><rect x="268.88" y="169.33" width="20.48" height="13.55" transform="translate(-11.32 332.84) rotate(-60.6)"/><path d="m293.07,248.9c-14.93,4.17-30.47-4.59-34.64-19.52-.04-.13-.07-.26-.1-.39l.04.16,16.89-4.48s.02.07.03.11c1.62,5.59,7.47,8.86,13.08,7.29,3.88-1.08,6.78-4.21,7.58-8.16l17.13,3.45c-2.1,10.43-9.77,18.68-20.01,21.54Z" style="fill:#ec1a8d;"/><path d="m278.23,195.74c-14.87,4.15-23.58,19.53-19.52,34.4l54.04-15.09c-4.24-14.82-19.65-23.46-34.52-19.31Z"/></g></g><g><g><path d="m137.33,185.76c1.3-.37,2.02-1.5,1.7-2.65s-1.53-1.75-2.83-1.38-2.02,1.5-1.7,2.65,1.53,1.75,2.83,1.38"/><path d="m170.18,182.49c-2.19-.05-2.79-.3-3.1-1.41-.26-.91.23-1.74,1.21-2.01,1.45-.41,2.58.41,3.51,2.2l1.38-.39-.84-3c-1.03-.27-2.74-.11-4.06.27-2.78.78-4.09,3.11-3.53,5.1.56,1.99,1.77,2.79,5.02,2.86,2.21.04,2.81.38,3.09,1.36s-.26,1.82-1.46,2.16c-1.62.46-3.13-.39-4.11-2.24l-1.35.38.88,3.15c1.33.18,3.05.07,4.59-.36,2.58-.73,4.45-2.76,3.74-5.3-.53-1.87-1.71-2.7-4.97-2.77"/><path d="m156.32,186.3c-.6-2.4-.18-3.85,1.05-4.19,1.21-.34,2.13.52,2.93,3.07l-3.98,1.12Zm1.54-5.29c-3.15.88-5.54,4.34-4.41,8.38,1.06,3.76,4.16,5.09,7.21,4.23,2.26-.64,3.67-1.96,4.74-4.28l-.43-.3c-.8,1.02-1.65,1.5-2.66,1.78-2.43.68-4.68-.62-5.71-3.6l7.79-2.19c-1-3.36-3.08-5-6.54-4.02"/><path d="m141.74,194.59l-2.24-7.97-.52-.17-4.61,2.38.11.39.55.16c.92.27,1.26.63,1.66,2.03l1.2,4.25c.75,2.66.64,3.14-.12,3.54l-.42.22.14.49c.52-.15,2.48-.72,3.51-1.01s2.78-.76,3.3-.9l-.14-.49-.47.03c-.86.06-1.2-.3-1.95-2.96"/><path d="m148.75,187.18c1.77-.04,2.62-.13,3.11-.26.64-.18,1.01-.95.55-2.57-.3-1.06-1.09-1.42-2.05-1.15-1.11.31-1.7.85-2.68,3.67l-.68-2.43-.52-.17-4.61,2.38.11.39.55.16c.93.27,1.26.63,1.66,2.03l1.22,4.33c.75,2.66.64,3.14-.12,3.54l-.41.22.14.49c.52-.15,2.26-.66,3.29-.95s3.5-.96,4.06-1.12l-.14-.49h-.32c-1.6.06-1.89-.1-2.65-2.8l-1.31-4.67c.24-.2.48-.37.81-.6"/><path d="m73.1,218.03l-.14-.49-.47.03c-.86.06-1.2-.3-1.95-2.96l-3.64-12.94-.53-.17-4.61,2.38.11.39.55.16c.93.27,1.26.63,1.66,2.03l2.59,9.22c.75,2.66.64,3.14-.12,3.54l-.41.22.14.49c.52-.15,2.48-.72,3.51-1.01s2.79-.76,3.3-.9"/><path d="m75.2,205.21c1.21-.34,2.13.51,2.93,3.07l-3.98,1.12c-.6-2.4-.18-3.85,1.05-4.19m3.29,11.52c2.26-.64,3.67-1.96,4.74-4.28l-.43-.3c-.8,1.02-1.65,1.5-2.66,1.78-2.43.68-4.68-.62-5.71-3.6l7.79-2.19c-1-3.36-3.08-5-6.54-4.02-3.15.88-5.54,4.34-4.41,8.38,1.06,3.76,4.16,5.09,7.21,4.23"/><path d="m93.06,208.33c-.53-1.87-1.72-2.7-4.97-2.77-2.19-.05-2.79-.3-3.1-1.41-.26-.91.23-1.74,1.21-2.01,1.45-.41,2.58.41,3.51,2.2l1.38-.39-.84-3c-1.03-.27-2.74-.11-4.06.27-2.78.78-4.09,3.11-3.53,5.1s1.77,2.79,5.02,2.86c2.21.04,2.81.38,3.09,1.36s-.26,1.82-1.46,2.16c-1.62.46-3.14-.39-4.11-2.24l-1.35.38.88,3.15c1.32.18,3.04.07,4.59-.36,2.58-.73,4.45-2.76,3.74-5.3"/><path d="m120.65,186.12c-1.48.41-2.68,1.31-3.54,2.43-1.2-.3-2.28-.26-3.7.14-3.24.91-5.36,3.63-4.99,6.53l-1.69,1.21.2.71,1.84-.52,1.89,6.71c.75,2.66.64,3.14-.12,3.54l-.41.22.14.49c.52-.15,2.26-.66,3.29-.95s2.88-.78,3.45-.94l-.14-.49h-.32c-.95.04-1.29-.32-1.89-2.48l-2.02-7.18,3.52-.99,2.02,7.18c.61,2.16.51,2.64-.32,3.11l-.27.16.14.49c.52-.15,2.18-.64,3.22-.93s3.5-.96,4.06-1.12l-.14-.49h-.32c-1.6.06-1.89-.1-2.65-2.8l-1.88-6.69,2.85-.8-.37-1.33-2.85.8-.14-.51c-.43-1.52-.57-2.68-.01-3.63,1.95,1.26,2.93,1.56,3.79,1.32s1.16-1.36.87-2.39c-.24-.84-1.67-1.31-3.49-.8m-4.84,7.08l-3.55,1v-.02c-.51-1.8-.76-3.63.81-4.08.98-.28,1.92.31,2.75,1.38-.09.58-.1,1.16-.01,1.72"/><path d="m104.15,207.02c-.29.19-.56.29-1.05.43-1.16.32-2.22.01-2.52-1.02-.24-.86.13-1.52.99-2.32.53-.47.95-.77,1.44-1.12h0s0,0,0,0l1.13,4.03Zm5.13.31c-.49.16-.89-.06-1.08-.73l-2.02-7.19c-.66-2.36-2.14-3.17-5.11-2.33-3.52.99-5.06,3.7-4.75,4.81.26.91,1.11,1.31,1.92,1.08.98-.28,1.32-1.17,1-4,.13-.09.32-.17.54-.23,1.06-.3,2.03-.07,2.61,2.02l.42,1.5c-.9.49-1.74.97-2.6,1.53-2.55,1.67-3.31,2.68-2.79,4.5s2.38,2.41,3.78,2.02c1.57-.44,2.38-1.36,3.15-2.77.67.95,1.84,1.37,3.15,1,.81-.23,1.77-.62,2.05-.76l-.14-.49s-.09.03-.13.04"/><path d="m131.37,199.37c-.29.19-.56.29-1.05.43-1.16.32-2.22.01-2.51-1.02-.24-.86.13-1.52.99-2.32.53-.47.95-.77,1.44-1.12h0s1.13,4.03,1.13,4.03Zm5.13.31c-.49.16-.89-.07-1.08-.73l-2.02-7.19c-.66-2.36-2.14-3.17-5.11-2.33-3.52.99-5.06,3.7-4.75,4.81.26.91,1.11,1.31,1.92,1.08.98-.28,1.32-1.17,1-3.99.13-.09.32-.17.55-.23,1.06-.3,2.02-.06,2.61,2.03l.42,1.5c-.9.49-1.74.97-2.6,1.53-2.55,1.67-3.3,2.68-2.79,4.5s2.38,2.41,3.78,2.02c1.57-.44,2.38-1.36,3.15-2.77.67.95,1.84,1.37,3.15,1,.81-.23,1.77-.62,2.05-.76l-.14-.49s-.09.03-.13.04"/></g><g><path d="m60.51,194.54l.02.08c.5,1.64,1.67,2.4,2.88,2.06.66-.19,1.05-.56,1.41-1.19l.19.08c-.38,1.04-1.04,1.81-2.08,2.11-1.53.43-2.97-.3-3.47-2.09-.54-1.94.57-3.58,1.98-3.97,1.55-.44,2.54.22,3.03,1.81l-3.95,1.11Zm2.44-1.04c-.38-1.21-.98-1.7-1.68-1.5-.78.22-1.1,1.04-.85,2.21l2.53-.71Zm-1.43-3.22l-1.01,1.13-.17-.08.33-1.46c.15-.67.29-.92.65-1.03.34-.09.61.09.69.38.09.32-.1.61-.49,1.06Z"/><path d="m70.82,189.35l-.18.09c-.42.21-.56.52-.7,1.61l-.66,4.82-.28.14-3.19-3.85c-.73-.87-.9-1.03-1.43-.98l-.21.02-.05-.18c.29-.08,1.04-.28,1.56-.42s1.3-.38,1.57-.46l.05.18-.23.1c-.34.16-.42.31-.36.51s.2.43.34.62l2.1,2.76.28-2.89c.05-.52.06-.91-.02-1.16s-.27-.37-.61-.32l-.28.04-.05-.18c.29-.08.71-.19,1.22-.33s.79-.24,1.08-.32l.05.18Z"/><path d="m72.98,191.04l.02.08c.5,1.64,1.67,2.4,2.88,2.06.66-.19,1.05-.56,1.41-1.19l.19.08c-.38,1.04-1.04,1.81-2.08,2.11-1.53.43-2.97-.3-3.47-2.09-.54-1.94.57-3.58,1.98-3.97,1.55-.44,2.54.22,3.03,1.81l-3.95,1.11Zm2.44-1.04c-.38-1.21-.98-1.7-1.68-1.5-.78.22-1.1,1.04-.85,2.21l2.53-.71Zm-1.43-3.22l-1.01,1.13-.17-.08.33-1.46c.15-.67.29-.92.65-1.03.34-.09.61.09.69.38.09.32-.1.61-.49,1.06Z"/><path d="m85.03,191.34c-.27.07-.95.26-1.47.4s-1.19.35-1.48.43l-.05-.18.18-.09c.49-.24.54-.43.25-1.48l-.64-2.28c-.25-.88-.75-1.2-1.43-1.01-.47.13-.82.42-1.09.79l.88,3.14c.3,1.06.43,1.19.98,1.14l.2-.02.05.18c-.29.08-.97.26-1.48.4s-1.2.35-1.48.43l-.05-.18.22-.1c.46-.21.51-.42.18-1.57l-.71-2.52c-.18-.63-.33-.76-.81-.85l-.33-.06-.04-.13,1.89-1.01.19.06.23.81c.49-.72.97-1.25,1.72-1.46,1.07-.3,1.81.11,2.15,1.33l.68,2.43c.33,1.18.47,1.3.99,1.24l.22-.02.05.18Z"/><path d="m85.76,187.45l.02.08c.5,1.64,1.67,2.4,2.88,2.06.66-.19,1.05-.56,1.41-1.19l.19.08c-.38,1.04-1.04,1.81-2.08,2.11-1.53.43-2.97-.3-3.47-2.09-.54-1.94.57-3.58,1.98-3.97,1.55-.44,2.54.22,3.03,1.81l-3.95,1.11Zm2.44-1.04c-.38-1.21-.98-1.7-1.68-1.5-.78.22-1.1,1.04-.85,2.21l2.53-.71Z"/><path d="m101.3,186.77c-.27.07-.94.25-1.46.4s-1.19.35-1.49.43l-.05-.18.19-.09c.49-.24.53-.42.23-1.48l-.64-2.28c-.25-.88-.71-1.22-1.38-1.03-.47.13-.82.44-1.1.83.07.16.16.38.22.59l.68,2.41c.33,1.18.45,1.29,1,1.24l.2-.02.05.18c-.27.07-.95.26-1.47.4s-1.19.35-1.48.43l-.05-.18.18-.09c.49-.24.54-.43.25-1.48l-.64-2.28c-.25-.88-.72-1.21-1.39-1.02-.45.13-.79.42-1.07.78l.88,3.14c.3,1.06.43,1.19.98,1.14l.2-.02.05.18c-.29.08-.99.27-1.51.41s-1.18.34-1.45.42l-.05-.18.22-.1c.46-.21.51-.42.18-1.57l-.71-2.52c-.18-.63-.33-.76-.81-.85l-.33-.06-.04-.13,1.89-1.01.19.06.23.81c.49-.72.96-1.25,1.71-1.45.83-.23,1.4-.02,1.77.57.5-.76,1.02-1.35,1.78-1.57,1.07-.3,1.76.13,2.11,1.34l.68,2.43c.33,1.18.47,1.3.99,1.24l.22-.02.05.18Z"/><path d="m102.03,182.87l.02.08c.5,1.64,1.67,2.4,2.88,2.06.66-.19,1.05-.56,1.41-1.19l.19.08c-.38,1.04-1.04,1.81-2.08,2.11-1.53.43-2.97-.3-3.47-2.09-.54-1.94.57-3.58,1.98-3.97,1.55-.44,2.54.22,3.03,1.81l-3.95,1.11Zm2.44-1.04c-.38-1.21-.98-1.7-1.68-1.5-.78.22-1.1,1.04-.85,2.21l2.53-.71Z"/><path d="m114.07,183.18c-.26.07-.95.26-1.47.4s-1.19.35-1.48.43l-.05-.18.18-.09c.49-.24.54-.43.25-1.48l-.64-2.28c-.25-.88-.75-1.2-1.43-1.01-.47.13-.82.42-1.09.79l.88,3.14c.3,1.06.43,1.19.98,1.14l.2-.02.05.18c-.29.08-.97.26-1.48.4s-1.2.35-1.48.43l-.05-.18.22-.1c.46-.21.51-.42.18-1.57l-.71-2.52c-.18-.63-.33-.76-.81-.85l-.33-.06-.04-.13,1.89-1.01.19.06.23.81c.49-.72.97-1.25,1.72-1.46,1.07-.3,1.81.11,2.15,1.33l.68,2.43c.33,1.18.47,1.3.99,1.24l.21-.02.05.18Z"/><path d="m117.9,181.44c-.36.56-.79.98-1.42,1.15-.93.26-1.53-.03-1.8-1.01l-1.08-3.85-.85.24-.06-.22.82-.61.4-2.06.37-.1.52,1.85,1.55-.44.15.52-1.55.44,1.07,3.82c.16.57.51.76.97.64.31-.09.49-.23.73-.52l.2.15Z"/><path d="m120.82,181.38c-.77.22-1.46.24-2.12.14l-.38-1.34.48-.14c.48.92,1.11,1.27,2.03,1.02.67-.19,1-.68.84-1.27s-.52-.73-1.67-.76c-1.43-.04-2.07-.38-2.33-1.32-.28-1,.42-1.99,1.61-2.32.69-.19,1.36-.21,1.84-.1l.37,1.3-.49.14c-.45-.85-.93-1.24-1.7-1.03-.61.17-.9.67-.74,1.24s.56.74,1.65.77c1.5.03,2.1.4,2.35,1.3.32,1.14-.6,2.07-1.72,2.38Z"/></g></g></g></g></svg>