<svg xmlns="http://www.w3.org/2000/svg" xmlns:xlink="http://www.w3.org/1999/xlink" width="263.961" height="261.978" viewBox="0 0 263.961 261.978">
  <defs>
    <clipPath id="clip-path">
      <rect id="Rectangle_77" data-name="Rectangle 77" width="263.961" height="261.978" fill="none"/>
    </clipPath>
  </defs>
  <g id="Group_115" data-name="Group 115" transform="translate(0 0)">
    <g id="Group_114" data-name="Group 114" transform="translate(0 0)">
      <g id="Group_113" data-name="Group 113" clip-path="url(#clip-path)">
        <path id="Path_30" data-name="Path 30" d="M256.295,136.731A128.147,128.147,0,1,1,128.151,8.579,128.142,128.142,0,0,1,256.295,136.731" transform="translate(0 -2.896)" fill="#fff"/>
      </g>
    </g>
    <text id="G" transform="translate(48.595 121.739) rotate(-74.234)" font-size="23" font-family="NHaasGroteskTXPro-65Md, Neue Haas Grotesk Text Pro" font-weight="500"><tspan x="0" y="0">G</tspan></text>
    <text id="r" transform="translate(54.201 103.334) rotate(-64.164)" font-size="23" font-family="NHaasGroteskTXPro-65Md, Neue Haas Grotesk Text Pro" font-weight="500"><tspan x="0" y="0">r</tspan></text>
    <text id="a" transform="translate(58.026 94.978) rotate(-56.245)" font-size="23" font-family="NHaasGroteskTXPro-65Md, Neue Haas Grotesk Text Pro" font-weight="500"><tspan x="0" y="0">a</tspan></text>
    <text id="n" transform="translate(65.597 83.53) rotate(-46.378)" font-size="23" font-family="NHaasGroteskTXPro-65Md, Neue Haas Grotesk Text Pro" font-weight="500"><tspan x="0" y="0">n</tspan></text>
    <text id="d" transform="translate(75.408 73.141) rotate(-36.088)" font-size="23" font-family="NHaasGroteskTXPro-65Md, Neue Haas Grotesk Text Pro" font-weight="500"><tspan x="0" y="0">d</tspan></text>
    <text id="_" data-name=" " transform="translate(86.653 62.818) rotate(-28.732)" font-size="21" font-family="NHaasGroteskTXPro-65Md, Neue Haas Grotesk Text Pro" font-weight="500"><tspan x="0" y="0"> </tspan></text>
    <text id="Q" transform="translate(92.233 60.257) rotate(-19.78)" font-size="22" font-family="NHaasGroteskTXPro-65Md, Neue Haas Grotesk Text Pro" font-weight="500"><tspan x="0" y="0">Q</tspan></text>
    <text id="u" transform="translate(111.24 54.733) rotate(-7.873)" font-size="23" font-family="NHaasGroteskTXPro-65Md, Neue Haas Grotesk Text Pro" font-weight="500"><tspan x="0" y="0">u</tspan></text>
    <text id="a-2" data-name="a" transform="translate(125.257 52.775) rotate(1.98)" font-size="23" font-family="NHaasGroteskTXPro-65Md, Neue Haas Grotesk Text Pro" font-weight="500"><tspan x="0" y="0">a</tspan></text>
    <text id="i" transform="translate(139.224 52.488) rotate(8.872)" font-size="22" font-family="NHaasGroteskTXPro-65Md, Neue Haas Grotesk Text Pro" font-weight="500"><tspan x="0" y="0">i</tspan></text>
    <text id="_2" data-name=" " transform="translate(145.316 52.419) rotate(13.082)" font-size="21" font-family="NHaasGroteskTXPro-65Md, Neue Haas Grotesk Text Pro" font-weight="500"><tspan x="0" y="0"> </tspan></text>
    <text id="d-2" data-name="d" transform="translate(150.778 55.427) rotate(20.393)" font-size="23" font-family="NHaasGroteskTXPro-65Md, Neue Haas Grotesk Text Pro" font-weight="500"><tspan x="0" y="0">d</tspan></text>
    <text id="u-2" data-name="u" transform="translate(164.671 60.578) rotate(30.508)" font-size="23" font-family="NHaasGroteskTXPro-65Md, Neue Haas Grotesk Text Pro" font-weight="500"><tspan x="0" y="0">u</tspan></text>
    <text id="_3" data-name=" " transform="translate(178.052 66.432) rotate(37.631)" font-size="21" font-family="NHaasGroteskTXPro-65Md, Neue Haas Grotesk Text Pro" font-weight="500"><tspan x="0" y="0"> </tspan></text>
    <text id="P" transform="translate(181.809 71.37) rotate(45.518)" font-size="23" font-family="NHaasGroteskTXPro-65Md, Neue Haas Grotesk Text Pro" font-weight="500"><tspan x="0" y="0">P</tspan></text>
    <text id="o" transform="translate(192.86 82.597) rotate(56.102)" font-size="23" font-family="NHaasGroteskTXPro-65Md, Neue Haas Grotesk Text Pro" font-weight="500"><tspan x="0" y="0">o</tspan></text>
    <text id="r-2" data-name="r" transform="translate(200.951 94.936) rotate(64.588)" font-size="23" font-family="NHaasGroteskTXPro-65Md, Neue Haas Grotesk Text Pro" font-weight="500"><tspan x="0" y="0">r</tspan></text>
    <text id="t" transform="translate(206.076 103.426) rotate(71.136)" font-size="22" font-family="NHaasGroteskTXPro-65Md, Neue Haas Grotesk Text Pro" font-weight="500"><tspan x="0" y="0">t</tspan></text>
    <text id="_4" data-name=" " transform="translate(209.943 111.849) rotate(76.457)" font-size="21" font-family="NHaasGroteskTXPro-65Md, Neue Haas Grotesk Text Pro" font-weight="500"><tspan x="0" y="0"> </tspan></text>
    <text id="d-3" data-name="d" transform="translate(209.706 118.077) rotate(83.856)" font-size="23" font-family="NHaasGroteskTXPro-65Md, Neue Haas Grotesk Text Pro" font-weight="500"><tspan x="0" y="0">d</tspan></text>
    <text id="e" transform="translate(211.307 132.8) rotate(94.111)" font-size="23" font-family="NHaasGroteskTXPro-65Md, Neue Haas Grotesk Text Pro" font-weight="500"><tspan x="0" y="0">e</tspan></text>
    <text id="_5" data-name=" " transform="translate(212 147.485) rotate(101.267)" font-size="21" font-family="NHaasGroteskTXPro-65Md, Neue Haas Grotesk Text Pro" font-weight="500"><tspan x="0" y="0"> </tspan></text>
    <text id="M" transform="matrix(-0.357, 0.934, -0.934, -0.357, 209.559, 153.068)" font-size="23" font-family="NHaasGroteskTXPro-65Md, Neue Haas Grotesk Text Pro" font-weight="500"><tspan x="0" y="0">M</tspan></text>
    <text id="o-2" data-name="o" transform="matrix(-0.553, 0.834, -0.834, -0.553, 201.58, 173.071)" font-size="23" font-family="NHaasGroteskTXPro-65Md, Neue Haas Grotesk Text Pro" font-weight="500"><tspan x="0" y="0">o</tspan></text>
    <text id="n-2" data-name="n" transform="translate(193.478 185.339) rotate(133.745)" font-size="23" font-family="NHaasGroteskTXPro-65Md, Neue Haas Grotesk Text Pro" font-weight="500"><tspan x="0" y="0">n</tspan></text>
    <text id="t-2" data-name="t" transform="translate(184.235 196.216) rotate(141.81)" font-size="22" font-family="NHaasGroteskTXPro-65Md, Neue Haas Grotesk Text Pro" font-weight="500"><tspan x="0" y="0">t</tspan></text>
    <text id="r-3" data-name="r" transform="translate(176.576 201.015) rotate(148.377)" font-size="23" font-family="NHaasGroteskTXPro-65Md, Neue Haas Grotesk Text Pro" font-weight="500"><tspan x="0" y="0">r</tspan></text>
    <text id="é" transform="matrix(-0.919, 0.393, -0.393, -0.919, 168.876, 206.07)" font-size="23" font-family="NHaasGroteskTXPro-65Md, Neue Haas Grotesk Text Pro" font-weight="500"><tspan x="0" y="0">é</tspan></text>
    <text id="a-3" data-name="a" transform="translate(155.818 211.734) rotate(166.187)" font-size="23" font-family="NHaasGroteskTXPro-65Md, Neue Haas Grotesk Text Pro" font-weight="500"><tspan x="0" y="0">a</tspan></text>
    <text id="l" transform="matrix(-0.993, 0.119, -0.119, -0.993, 142.455, 215.813)" font-size="22" font-family="NHaasGroteskTXPro-65Md, Neue Haas Grotesk Text Pro" font-weight="500"><tspan x="0" y="0">l</tspan></text>
  </g>
</svg>
