<?xml version="1.0" encoding="utf-8"?>
<!-- Generator: Adobe Illustrator 27.9.0, SVG Export Plug-In . SVG Version: 6.00 Build 0)  -->
<svg version="1.1" id="Layer_1" xmlns="http://www.w3.org/2000/svg" xmlns:xlink="http://www.w3.org/1999/xlink" x="0px" y="0px"
	 viewBox="0 0 264 262" style="enable-background:new 0 0 264 262;" xml:space="preserve">
<style type="text/css">
	.st0{clip-path:url(#SVGID_00000181802181068717368240000005123543737168782747_);}
	.st1{fill:#FFFFFF;}
	.st2{enable-background:new    ;}
</style>
<g id="Group_115" transform="translate(0 0)">
	<g id="Group_114" transform="translate(0 0)">
		<g>
			<defs>
				<rect id="SVGID_1_" x="0" width="264" height="262"/>
			</defs>
			<clipPath id="SVGID_00000176036136724918100430000006045849469644848285_">
				<use xlink:href="#SVGID_1_"  style="overflow:visible;"/>
			</clipPath>
			<g id="Group_113" style="clip-path:url(#SVGID_00000176036136724918100430000006045849469644848285_);">
				<path id="Path_30" class="st1" d="M256.3,133.8c0,70.8-57.4,128.1-128.2,128.1C57.4,262,0,204.6,0,133.8
					C0,63.1,57.4,5.7,128.1,5.7C198.9,5.7,256.3,63.1,256.3,133.8C256.3,133.8,256.3,133.8,256.3,133.8"/>
			</g>
		</g>
	</g>
	<g class="st2">
		<path d="M50.2,107.4L50.2,107.4c1.5,1.7,1.8,3.7,1.2,5.7c-0.7,2.3-2.1,4-3.9,4.9c-1.9,1-4.3,1.1-6.8,0.4c-2.7-0.7-4.7-2.3-5.8-4.3
			c-0.9-1.7-1.2-3.7-0.5-6.1c1.1-4,3.9-5.8,7.2-5.5l-0.9,3.1c-1.7,0-3.1,0.9-3.8,3.1c-0.9,3.3,1.2,5.7,4.7,6.6
			c3.5,1,6.5-0.3,7.4-3.2c0.8-2.8-0.7-4.8-2.8-5.4l-0.2-0.1l-1.1,4l-2.4-0.7l2-6.9l8.8,2.5l-0.6,2.1L50.2,107.4z"/>
	</g>
	<g class="st2">
		<path d="M46.9,95.2L46.9,95.2c-1.1-1.5-1.3-2.9-0.6-4.3c0.2-0.3,0.3-0.5,0.4-0.7l2.4,1.1l0,0.1c-0.2,0.2-0.3,0.4-0.4,0.7
			c-0.9,1.7-0.3,3.6,1.8,4.6l5.5,2.7l-1.3,2.6l-11.1-5.4l1.2-2.5L46.9,95.2z"/>
	</g>
	<g class="st2">
		<path d="M61.6,86.7L61.6,86.7c0.4,1.3,0.5,2.7-0.6,4.3c-1.3,2-3.4,2.8-5.3,1.5c-2.3-1.5-1.7-3.7-0.4-6.3c0.9-1.8,1.2-2.8,0.3-3.5
			c-0.9-0.6-1.9-0.4-2.7,0.9c-0.9,1.4-0.7,2.4,0.3,3.2l-1.5,2.3c-1.7-1.2-2.4-3.7-0.4-6.6c0.8-1.2,1.6-1.9,2.4-2.3
			c1.2-0.6,2.5-0.4,3.9,0.5l5.4,3.6c0.8,0.6,1.4,0.7,1.7,0.6l0.2,0.1l-1.6,2.4C62.8,87.3,62.4,87.1,61.6,86.7z M59.3,85.1l-1.5-1
			c0,0.7-0.3,1.6-0.7,2.4c-0.7,1.7-1,2.7,0.1,3.5c1.1,0.7,2,0.1,2.6-0.8C61,87.5,60.4,85.8,59.3,85.1z"/>
	</g>
	<g class="st2">
		<path d="M60.9,73.3L60.9,73.3c-0.4-1.6,0-3,1.1-4.3c1.8-1.9,4.1-1.9,6-0.1l6,5.7l-2,2.1l-5.7-5.4c-1-1-2.3-1-3.3,0.1
			c-1.1,1.2-1,2.9,0.2,4.1l5.2,5l-2,2.1l-8.9-8.5l2-2.1L60.9,73.3z"/>
	</g>
	<g class="st2">
		<path d="M72.4,67.8c-2.3-3.2-2-6.5,0.5-8.4c1.4-1,2.9-1.1,4.3-0.5l0,0c-0.4-0.5-1-1.3-1.6-2l-2.4-3.3l2.4-1.7l10.1,13.8l-2.3,1.7
			l-1.1-1.4l0,0c0.2,1.6-0.4,3-1.8,4C77.9,71.8,74.7,71,72.4,67.8z M79.8,62.4c-1.5-2-3.4-2.8-5.1-1.5c-1.6,1.2-1.4,3.2,0.1,5.1
			c1.4,2,3.2,2.8,4.8,1.6C81.3,66.3,81.2,64.3,79.8,62.4z"/>
	</g>
	<g class="st2">
		<path d="M104.3,55.2c-0.9,1-2.1,1.9-3.6,2.4c-4.7,1.7-8.8-0.7-10.5-5.3c-1.7-4.6,0-9.1,4.7-10.8c4.7-1.7,8.8,0.7,10.4,5.3
			c0.8,2.3,0.8,4.6,0,6.5l2.7,1l-0.8,1.9L104.3,55.2z M101.7,54.2l-2.5-1l0.8-2l2.9,1.1c0.4-1.3,0.3-2.8-0.3-4.4
			c-1.2-3.2-3.6-5.1-6.7-4c-3.1,1.1-3.8,4.1-2.6,7.3c1.1,3.2,3.6,5.1,6.7,4C100.6,55,101.2,54.6,101.7,54.2z"/>
	</g>
	<g class="st2">
		<path d="M120.4,53.5l-0.2-1.7l0,0c-0.7,1.4-1.7,2.3-3.4,2.6c-2.7,0.4-4.4-1.1-4.8-3.7l-1.1-8.2l2.9-0.4l1.1,7.8
			c0.2,1.4,1.1,2.2,2.6,2c1.6-0.2,2.5-1.6,2.3-3.3l-1-7.1l2.9-0.4l1.7,12.2L120.4,53.5z"/>
	</g>
	<g class="st2">
		<path d="M134.2,51.5L134.2,51.5c-0.9,1.1-2,1.8-4,1.8c-2.4-0.1-4.1-1.4-4.1-3.8c0.1-2.8,2.2-3.4,5.2-3.6c2-0.2,3.1-0.5,3.1-1.6
			c0-1.1-0.7-1.8-2.1-1.8c-1.6-0.1-2.5,0.7-2.6,1.9l-2.8-0.1c0.2-2.1,1.9-3.9,5.4-3.8c1.4,0,2.5,0.3,3.3,0.8
			c1.1,0.7,1.7,1.9,1.6,3.6l-0.2,6.5c0,1,0.1,1.5,0.4,1.7l0,0.2l-2.8-0.1C134.3,52.8,134.2,52.3,134.2,51.5z M134.3,48.6l0.1-1.8
			c-0.6,0.3-1.5,0.6-2.4,0.7c-1.8,0.3-2.9,0.6-2.9,2c0,1.3,0.9,1.7,2.1,1.8C133.1,51.3,134.3,50,134.3,48.6z"/>
	</g>
	<g class="st2">
		<path d="M142.3,41.1l2.8,0.4l-1.8,11.6l-2.8-0.4L142.3,41.1z M143,36.5l2.8,0.4l-0.4,2.7l-2.8-0.4L143,36.5z"/>
	</g>
	<g class="st2">
		<path d="M153.6,49.9c1.4-3.7,4.3-5.3,7.3-4.2c1.6,0.6,2.5,1.8,2.8,3.3l0,0c0.2-0.6,0.5-1.6,0.8-2.4l1.4-3.8l2.7,1l-6,16l-2.7-1
			l0.6-1.7l0,0c-1.2,1.1-2.7,1.3-4.3,0.7C153.3,56.8,152.2,53.7,153.6,49.9z M162.2,53.1c0.9-2.3,0.5-4.3-1.6-5.1
			c-1.9-0.7-3.4,0.6-4.2,2.9c-0.9,2.3-0.5,4.2,1.3,4.9C159.7,56.6,161.3,55.4,162.2,53.1z"/>
	</g>
	<g class="st2">
		<path d="M172.6,65.3l0.9-1.5l0,0c-1.5,0.7-2.8,0.8-4.2-0.1c-2.3-1.4-2.8-3.6-1.5-5.9l4.2-7.1l2.5,1.5l-4,6.8
			c-0.7,1.2-0.5,2.4,0.8,3.1c1.4,0.8,3,0.3,3.8-1.2l3.7-6.2l2.5,1.5l-6.2,10.6L172.6,65.3z"/>
	</g>
	<g class="st2">
		<path d="M195.1,60.5l5.2,5.3c1.4,1.4,2,2.8,1.9,4.2c-0.1,1.3-0.6,2.6-1.7,3.7c-2.3,2.3-5.2,2.3-7.8-0.3l-3-3.1l-4.6,4.5l-2.3-2.3
			L195.1,60.5z M191.6,68.5l2.7,2.7c1.4,1.4,2.8,1.4,4,0.2c1.2-1.2,1.2-2.6-0.1-4l-2.7-2.8L191.6,68.5z"/>
	</g>
	<g class="st2">
		<path d="M198.3,79.8c3-2,6.8-1.6,8.9,1.6s1.1,6.8-1.9,8.8c-3,2-6.7,1.6-8.9-1.6C194.3,85.4,195.3,81.8,198.3,79.8z M203.7,87.7
			c2.1-1.4,2.9-3.4,1.8-5.1c-1.2-1.8-3.4-1.7-5.4-0.3c-2,1.4-2.9,3.3-1.7,5.1C199.5,89.1,201.6,89.1,203.7,87.7z"/>
	</g>
	<g class="st2">
		<path d="M211.8,94.4L211.8,94.4c1.8,0.1,3,0.8,3.7,2.2c0.1,0.3,0.2,0.5,0.2,0.8l-2.4,1.1l0-0.1c-0.1-0.3-0.1-0.5-0.3-0.8
			c-0.8-1.8-2.6-2.5-4.8-1.5l-5.6,2.6l-1.3-2.6l11.1-5.3l1.2,2.6L211.8,94.4z"/>
	</g>
	<g class="st2">
		<path d="M217.4,100.2l0.6,1.7l3.5-1.2l0.9,2.6l-3.5,1.2l0.8,2.2l-1.8,0.6l-0.8-2.2l-6.2,2.1c-0.8,0.3-0.9,0.8-0.6,1.5
			c0.1,0.3,0.3,0.6,0.4,0.8l0,0.1l-2.1,0.7c-0.2-0.4-0.5-1-0.8-1.7c-0.6-1.8-0.4-3.2,1.6-3.9l6.8-2.3l-0.6-1.7L217.4,100.2z"/>
	</g>
	<g class="st2">
		<path d="M215.9,118.1c3.9-0.4,6.7,1.5,7,4.6c0.2,1.7-0.5,3-1.7,4l0,0c0.7-0.1,1.6-0.3,2.5-0.4l4-0.4l0.3,2.9l-17,1.8l-0.3-2.8
			l1.8-0.2l0,0c-1.5-0.6-2.4-1.8-2.6-3.5C209.6,120.9,211.9,118.6,215.9,118.1z M216.8,127.3c2.4-0.3,4.1-1.5,3.8-3.7
			c-0.2-2-2.1-2.8-4.5-2.5c-2.4,0.3-4,1.4-3.8,3.4C212.6,126.6,214.4,127.5,216.8,127.3z"/>
	</g>
	<g class="st2">
		<path d="M217.4,133.9c3.6,0.3,6.3,2.9,6,6.5c-0.1,1.8-0.8,3.1-2,4.1c-1.3,1.1-3.3,1.5-5.6,1.4l0.7-9.2c-2.1,0.1-3.6,1.1-3.8,3.1
			c-0.1,1.4,0.4,2.4,1.4,2.8l-0.2,2.8c-2.2-0.8-3.6-2.8-3.4-5.8C210.7,135.8,213.7,133.7,217.4,133.9z M218.3,137l-0.4,6.1
			c2,0,3.3-1,3.4-2.7C221.4,138.4,220.2,137.4,218.3,137z"/>
	</g>
	<g class="st2">
		<path d="M225,160.7l-1.5,3.9l-8.6-0.3c-2.1-0.1-5.9-0.7-5.9-0.7l0,0.1c0,0,3.2,2.1,4.8,3.4l6.6,5.5l-1.5,4l-16-6.1l1.1-2.8
			l8.3,3.2c1.7,0.7,4.9,2.1,4.9,2.1l0,0c0,0-2.7-1.8-4.1-2.9l-7.6-6.4l0.9-2.4l10,0.3c1.8,0.1,5,0.6,5,0.6l0,0c0,0-3.3-1-5.1-1.7
			l-8.3-3.2l1-2.7L225,160.7z"/>
	</g>
	<g class="st2">
		<path d="M206.3,177c3,2,4,5.6,1.9,8.8c-2.1,3.2-5.8,3.6-8.9,1.6c-3-2-4.1-5.6-2-8.8C199.5,175.5,203.3,175,206.3,177z M201,185
			c2.1,1.4,4.2,1.4,5.4-0.4c1.2-1.8,0.3-3.8-1.8-5.1c-2.1-1.4-4.2-1.4-5.4,0.4C198.1,181.7,199,183.6,201,185z"/>
	</g>
	<g class="st2">
		<path d="M198.2,195.6L198.2,195.6c0.4,1.6,0,3-1.2,4.3c-1.8,1.9-4.1,1.9-6,0.1l-6-5.8l2-2.1l5.7,5.4c1,1,2.3,1,3.3-0.1
			c1.1-1.2,1-2.9-0.2-4.1l-5.2-5l2-2.1l8.9,8.5l-2,2.1L198.2,195.6z"/>
	</g>
	<g class="st2">
		<path d="M191,205.8l-1.4,1.1l2.3,2.9l-2.2,1.7l-2.3-2.9l-1.8,1.5l-1.2-1.5l1.8-1.5l-4.1-5.2c-0.5-0.7-1-0.6-1.7-0.1
			c-0.2,0.2-0.5,0.5-0.7,0.6l-0.1,0.1l-1.3-1.7c0.3-0.4,0.8-0.8,1.3-1.3c1.5-1.2,2.9-1.4,4.2,0.2l4.4,5.7l1.4-1.1L191,205.8z"/>
	</g>
	<g class="st2">
		<path d="M178.3,211.8L178.3,211.8c0.1,1.8-0.5,3.1-1.8,3.9c-0.3,0.2-0.5,0.3-0.7,0.3l-1.4-2.2l0.1,0c0.3-0.1,0.5-0.2,0.7-0.3
			c1.7-1,2.2-2.9,1-4.9l-3.2-5.2l2.5-1.5l6.4,10.5l-2.4,1.5L178.3,211.8z"/>
	</g>
	<g class="st2">
		<path d="M170.6,212c1.4,3.4,0.3,6.9-3.1,8.4c-1.6,0.7-3.2,0.7-4.6,0.1c-1.6-0.7-2.9-2.2-3.8-4.3l8.4-3.6c-1-1.9-2.6-2.7-4.5-1.9
			c-1.3,0.6-1.9,1.5-1.9,2.5l-2.6,1.1c-0.3-2.3,0.9-4.5,3.6-5.7C165.9,206.9,169.2,208.6,170.6,212z M168.4,214.2l-5.6,2.4
			c0.9,1.8,2.4,2.5,4,1.8C168.5,217.6,168.9,216,168.4,214.2z M169.6,225.1l-3.2,1.4l0.8-4.2l2.1-0.9L169.6,225.1z"/>
	</g>
	<g class="st2">
		<path d="M147.6,215.4L147.6,215.4c0.6-1.3,1.4-2.3,3.3-2.8c2.3-0.6,4.4,0.2,4.9,2.5c0.7,2.7-1.2,3.9-4,4.9
			c-1.9,0.7-2.8,1.3-2.5,2.4c0.3,1,1.1,1.5,2.6,1.2c1.6-0.4,2.2-1.3,2-2.5l2.7-0.7c0.4,2.1-0.7,4.3-4.1,5.1
			c-1.4,0.3-2.5,0.4-3.4,0.1c-1.3-0.4-2.1-1.4-2.5-3l-1.5-6.3c-0.2-1-0.5-1.5-0.9-1.6l0-0.2l2.7-0.7
			C147.1,214.2,147.3,214.6,147.6,215.4z M148.2,218.2l0.4,1.8c0.5-0.5,1.3-1,2.1-1.4c1.7-0.8,2.6-1.4,2.3-2.7
			c-0.3-1.3-1.4-1.4-2.5-1.1C148.6,215.3,147.9,216.9,148.2,218.2z"/>
	</g>
	<g class="st2">
		<path d="M143.1,232.2l-2.8,0.3l-1.9-16.3l2.8-0.3L143.1,232.2z"/>
	</g>
</g>
</svg>
