<svg xmlns="http://www.w3.org/2000/svg" width="49.66" height="74.489" viewBox="0 0 49.66 74.489">
  <g id="Group_167" data-name="Group 167" transform="translate(0 0.001)">
    <path id="Path_125" data-name="Path 125" d="M.13,0,.08,28.283h0L.028,58.539,0,74.362V74.4l49.529.089.028-15.861-33.667-.06.054-30.256,33.666.06L49.661.088,15.995.028.132,0Z" transform="translate(0 0)" fill="#35b999"/>
    <path id="Path_126" data-name="Path 126" d="M.029,88.7,0,104.519v.038H15.89l.054-46.088L.082,58.44ZM.08,58.44h0Z" transform="translate(0 -30.157)"/>
    <path id="Path_127" data-name="Path 127" d="M32.832,136.847l33.639.089.029-15.861-33.668-.06Z" transform="translate(-16.942 -62.448)" fill="#fff"/>
    <path id="Path_128" data-name="Path 128" d="M.214,0,.164,28.283Z" transform="translate(-0.085)" fill="#35b999"/>
    <rect id="Rectangle_147" data-name="Rectangle 147" width="15.893" height="33.99" transform="translate(0.054 44.134) rotate(-89.898)" fill="#ec1a8d"/>
  </g>
</svg>
