<svg xmlns="http://www.w3.org/2000/svg" xmlns:xlink="http://www.w3.org/1999/xlink" width="387.026" height="210.888" viewBox="0 0 387.026 210.888">
  <defs>
    <clipPath id="clip-path">
      <rect id="Rectangle_86" data-name="Rectangle 86" width="171.628" height="78.991" transform="translate(0 44.56) rotate(-15.048)"/>
    </clipPath>
  </defs>
  <g id="Group_127" data-name="Group 127" transform="translate(0 -31.123)">
    <rect id="Rectangle_84" data-name="Rectangle 84" width="368.709" height="119.248" transform="matrix(0.966, -0.26, 0.26, 0.966, 0, 126.852)" fill="#fff"/>
    <path id="Path_32" data-name="Path 32" d="M211,144.729l4.043,15.037,8.518,31.68,19.353-5.2-1.6-5.94-9.076,2.44-10.964-40.777Z" transform="translate(-43.935 -23.08)"/>
    <g id="Group_126" data-name="Group 126" transform="translate(163.175 62.626)">
      <g id="Group_125" data-name="Group 125" transform="translate(0 0)" clip-path="url(#clip-path)">
        <path id="Path_33" data-name="Path 33" d="M271.848,168.98a7.315,7.315,0,0,1-1.684,7.18,15.944,15.944,0,0,1-7.983,4.508,16.174,16.174,0,0,1-9.033.21,7.388,7.388,0,0,1-5.242-5.39l-10.443-38.841,10.211-2.746,10.586,39.374a1.314,1.314,0,0,0,.728.916,2.2,2.2,0,0,0,1.452,0,2.037,2.037,0,0,0,1.219-.721,1.36,1.36,0,0,0,.138-1.149L251.212,132.95l10.211-2.746Z" transform="translate(-212.62 -83.257)"/>
        <path id="Path_34" data-name="Path 34" d="M305.1,169.523l-19.354,5.2-12.56-46.718,10.277-2.763,10.963,40.778,9.077-2.441Z" transform="translate(-220.059 -82.225)"/>
        <path id="Path_35" data-name="Path 35" d="M334.035,152.261a7.315,7.315,0,0,1-1.683,7.18,15.952,15.952,0,0,1-7.985,4.508,16.171,16.171,0,0,1-9.03.208,7.39,7.39,0,0,1-5.244-5.39L299.65,119.927l10.212-2.746,10.586,39.374a1.31,1.31,0,0,0,.728.915,2.188,2.188,0,0,0,1.452,0,2.032,2.032,0,0,0,1.219-.721,1.355,1.355,0,0,0,.137-1.148L313.4,116.231l10.211-2.746Z" transform="translate(-225.569 -79.776)" fill="#231f20"/>
        <rect id="Rectangle_85" data-name="Rectangle 85" width="5.356" height="78.99" transform="translate(121.804 11.813) rotate(-15.045)"/>
        <path id="Path_36" data-name="Path 36" d="M421.087,165.909l-.6-2.226,3.639,1.939.366,1.361Zm10.722-1.225,1.423-.382a1.037,1.037,0,0,0,.689-.484,1.071,1.071,0,0,0,.066-.824c-.108-.4-.294-.632-.563-.7a2,2,0,0,0-.764-.049l-.565-2.1a3.666,3.666,0,0,1,1.3-.118,2.858,2.858,0,0,1,1.158.364,3.1,3.1,0,0,1,.945.805,3.373,3.373,0,0,1,.6,1.234,3.335,3.335,0,0,1,.036,1.781,2.894,2.894,0,0,1-.8,1.366,2.964,2.964,0,0,1-.865.563,8.054,8.054,0,0,1-1.153.4l-3.443.926a8.053,8.053,0,0,1-1.2.233,2.957,2.957,0,0,1-1.03-.053,2.928,2.928,0,0,1-1.382-.778,3.334,3.334,0,0,1-.861-1.56,3.452,3.452,0,0,1-.105-1.375,2.866,2.866,0,0,1,.425-1.177,3.229,3.229,0,0,1,.874-.9,3.865,3.865,0,0,1,1.219-.558l2.886-.776Zm-1.648.443-.555-2.063-1.195.321a1.314,1.314,0,0,0-.821.52,1.129,1.129,0,0,0,.4,1.5,1.309,1.309,0,0,0,.971.038Z" transform="translate(-250.73 -89.464)" fill="#231f20"/>
        <path id="Path_37" data-name="Path 37" d="M416.159,147.579l-.6-2.226,3.639,1.939.366,1.361Zm10.722-1.226,1.423-.382a1.037,1.037,0,0,0,.689-.484,1.07,1.07,0,0,0,.066-.823q-.16-.6-.563-.7a2,2,0,0,0-.764-.049l-.565-2.1a3.667,3.667,0,0,1,1.3-.118,2.869,2.869,0,0,1,1.158.364,3.1,3.1,0,0,1,.945.805,3.372,3.372,0,0,1,.6,1.234,3.335,3.335,0,0,1,.036,1.781,2.9,2.9,0,0,1-.8,1.365,2.964,2.964,0,0,1-.865.563,8.055,8.055,0,0,1-1.153.4l-3.443.926a8.055,8.055,0,0,1-1.2.233,2.866,2.866,0,0,1-2.412-.831,3.345,3.345,0,0,1-.861-1.56,3.457,3.457,0,0,1-.105-1.375,2.865,2.865,0,0,1,.425-1.177,3.239,3.239,0,0,1,.874-.9,3.864,3.864,0,0,1,1.219-.558l2.886-.776Zm-1.648.443-.554-2.063-1.2.321a1.314,1.314,0,0,0-.821.52,1.128,1.128,0,0,0,.4,1.5,1.309,1.309,0,0,0,.971.038Z" transform="translate(-249.704 -85.647)" fill="#231f20"/>
        <path id="Path_38" data-name="Path 38" d="M434.338,152.846l.5,1.856-9.723,5.531-.6-2.227,6.3-3.2-.011-.042-7.057.4-.6-2.226Z" transform="translate(-251.285 -87.972)" fill="#231f20"/>
        <path id="Path_39" data-name="Path 39" d="M419.971,140.022l-.565-2.1,1.01-.272-.011-.041a3.067,3.067,0,0,1-1.028-.574,2.131,2.131,0,0,1-.637-1.1,2.489,2.489,0,0,1-.078-.819,1.911,1.911,0,0,1,.255-.822,2.3,2.3,0,0,1,.662-.706,3.419,3.419,0,0,1,1.136-.505l8.02-2.156.565,2.1-7.238,1.946a1.444,1.444,0,0,0-.835.511.962.962,0,0,0-.126.851.917.917,0,0,0,.593.724,2.147,2.147,0,0,0,1.134-.061l7.032-1.891.565,2.1Z" transform="translate(-250.349 -83.407)" fill="#231f20"/>
        <path id="Path_40" data-name="Path 40" d="M422.821,126.591l1.423-.382a1.041,1.041,0,0,0,.689-.483A1.07,1.07,0,0,0,425,124.9q-.16-.6-.562-.7a1.944,1.944,0,0,0-.765-.048l-.565-2.1a3.667,3.667,0,0,1,1.3-.117,2.856,2.856,0,0,1,1.158.363,3.115,3.115,0,0,1,.945.807,3.384,3.384,0,0,1,.6,1.233,3.339,3.339,0,0,1,.035,1.781,2.878,2.878,0,0,1-.8,1.365,2.912,2.912,0,0,1-.865.565,8.017,8.017,0,0,1-1.153.4l-3.443.926a8.06,8.06,0,0,1-1.2.233,2.879,2.879,0,0,1-2.412-.833,3.32,3.32,0,0,1-.86-1.559,3.449,3.449,0,0,1-.106-1.375,2.877,2.877,0,0,1,.425-1.177,3.225,3.225,0,0,1,.874-.9,3.865,3.865,0,0,1,1.219-.559l2.886-.776Zm-1.647.443-.555-2.062-1.2.321a1.316,1.316,0,0,0-.821.519,1.13,1.13,0,0,0,.4,1.505,1.318,1.318,0,0,0,.971.037Z" transform="translate(-249.852 -81.532)" fill="#231f20"/>
        <path id="Path_41" data-name="Path 41" d="M414.37,119.158l-.566-2.1,1.01-.272-.01-.04a3.072,3.072,0,0,1-1.028-.574,2.127,2.127,0,0,1-.637-1.1,1.95,1.95,0,0,1,.024-1.223,3.52,3.52,0,0,1,.523-.937,4.526,4.526,0,0,1-.975-.667,2.478,2.478,0,0,1-.663-1.236,2.668,2.668,0,0,1-.083-.84,2.068,2.068,0,0,1,.244-.862,2.4,2.4,0,0,1,.651-.748,3.1,3.1,0,0,1,1.131-.525l8.02-2.157.564,2.1-7.238,1.946a1.446,1.446,0,0,0-.834.514.965.965,0,0,0-.126.851.916.916,0,0,0,.593.724,2.138,2.138,0,0,0,1.134-.061l7.032-1.89.565,2.1-7.238,1.946a1.451,1.451,0,0,0-.835.511.965.965,0,0,0-.126.853.917.917,0,0,0,.593.724,2.145,2.145,0,0,0,1.133-.062l7.032-1.891.566,2.1Z" transform="translate(-248.954 -78.191)" fill="#231f20"/>
        <path id="Path_42" data-name="Path 42" d="M416.087,101.543l1.423-.382a1.04,1.04,0,0,0,.689-.485,1.071,1.071,0,0,0,.066-.824q-.161-.6-.562-.7a1.975,1.975,0,0,0-.765-.049l-.565-2.1a3.648,3.648,0,0,1,1.3-.117,2.869,2.869,0,0,1,1.158.363,3.112,3.112,0,0,1,.945.806,3.378,3.378,0,0,1,.6,1.233,3.344,3.344,0,0,1,.036,1.782,2.885,2.885,0,0,1-.8,1.366,2.951,2.951,0,0,1-.865.564,8.054,8.054,0,0,1-1.153.4l-3.443.926a8.062,8.062,0,0,1-1.2.234,2.869,2.869,0,0,1-2.412-.832,3.33,3.33,0,0,1-.861-1.56,3.448,3.448,0,0,1-.105-1.374,2.86,2.86,0,0,1,.425-1.177,3.238,3.238,0,0,1,.874-.9,3.848,3.848,0,0,1,1.219-.559l2.886-.776Zm-1.648.443-.554-2.063-1.2.321a1.314,1.314,0,0,0-.821.52,1.129,1.129,0,0,0,.4,1.5,1.311,1.311,0,0,0,.971.039Z" transform="translate(-248.449 -76.316)" fill="#231f20"/>
        <path id="Path_43" data-name="Path 43" d="M407.924,95.212l-.566-2.1,1.01-.272-.01-.04a3.076,3.076,0,0,1-1.029-.576,2.13,2.13,0,0,1-.637-1.1,2.475,2.475,0,0,1-.078-.819,1.917,1.917,0,0,1,.255-.823,2.3,2.3,0,0,1,.662-.705,3.4,3.4,0,0,1,1.136-.506l8.019-2.156.566,2.1-7.238,1.946a1.448,1.448,0,0,0-.835.512.963.963,0,0,0-.126.852.914.914,0,0,0,.592.724,2.13,2.13,0,0,0,1.134-.061l7.032-1.891.566,2.1Z" transform="translate(-247.84 -74.076)" fill="#231f20"/>
        <path id="Path_44" data-name="Path 44" d="M401.391,86.695l-.565-2.1L404,83.738l-.349-1.3L405.3,82l.349,1.3,5.792-1.557A1.911,1.911,0,0,0,412,81.51a.61.61,0,0,0,.249-.31.871.871,0,0,0,.016-.435c-.033-.169-.078-.371-.141-.6l1.981-.533.233.867a2.936,2.936,0,0,1,.1,1.267,2.27,2.27,0,0,1-.369.929,2.346,2.346,0,0,1-.682.636,3.049,3.049,0,0,1-.819.364l-6.35,1.708.282,1.05-1.65.444-.282-1.051Z" transform="translate(-246.636 -72.726)" fill="#231f20"/>
        <path id="Path_45" data-name="Path 45" d="M405.76,75.454a1.079,1.079,0,0,0-.713.557,1.138,1.138,0,0,0-.073.8.98.98,0,0,0,.525.678,1.137,1.137,0,0,0,.8.07,1.273,1.273,0,0,0,.531-.3,1.392,1.392,0,0,0,.3-.879l.162-1.37a3.109,3.109,0,0,1,.8-1.951,3.53,3.53,0,0,1,1.592-.9,3.258,3.258,0,0,1,1.289-.093,3.39,3.39,0,0,1,1.176.38,3.119,3.119,0,0,1,.945.807,3.263,3.263,0,0,1,.584,1.192,3.471,3.471,0,0,1,.11,1.231,2.955,2.955,0,0,1-.335,1.139,3.079,3.079,0,0,1-.793.953,3.6,3.6,0,0,1-1.291.658l-.532-1.979a2.1,2.1,0,0,0,.724-.516.942.942,0,0,0,.143-.933,1.289,1.289,0,0,0-.516-.735,1.062,1.062,0,0,0-.933-.135,1.273,1.273,0,0,0-.681.424,1.869,1.869,0,0,0-.313.971l-.1,1.11a3.582,3.582,0,0,1-.685,1.853,2.928,2.928,0,0,1-1.63,1.045,3.122,3.122,0,0,1-1.294.082,3.027,3.027,0,0,1-1.15-.408,3.185,3.185,0,0,1-.892-.812,3.225,3.225,0,0,1-.547-1.134,2.984,2.984,0,0,1,1.109-3.239,3.354,3.354,0,0,1,1.145-.551Z" transform="translate(-247.06 -71.147)" fill="#231f20"/>
      </g>
    </g>
    <text id="présenté_par" data-name="présenté par" transform="translate(46.62 186.046) rotate(-15.048)" fill="#231f20" font-size="18" font-family="NHaasGroteskTXPro-65Md, Neue Haas Grotesk Text Pro" font-weight="500"><tspan x="0" y="0">p</tspan><tspan y="0" letter-spacing="-0.014em">r</tspan><tspan y="0">é</tspan><tspan y="0" letter-spacing="0.005em">s</tspan><tspan y="0">e</tspan><tspan y="0" letter-spacing="-0.009em">n</tspan><tspan y="0">té par</tspan></text>
  </g>
</svg>
