<?xml version="1.0" encoding="utf-8"?>
<!-- Generator: Adobe Illustrator 27.9.0, SVG Export Plug-In . SVG Version: 6.00 Build 0)  -->
<svg version="1.1" id="Layer_1" xmlns="http://www.w3.org/2000/svg" xmlns:xlink="http://www.w3.org/1999/xlink" x="0px" y="0px"
	 viewBox="0 0 387.2 211.1" style="enable-background:new 0 0 387.2 211.1;" xml:space="preserve">
<style type="text/css">
	.st0{fill:#36B898;}
	.st1{clip-path:url(#SVGID_00000016070476201939361210000000024144458138084502_);}
	.st2{fill:#231F20;}
	.st3{enable-background:new    ;}
</style>
<g id="Group_127" transform="translate(0 -31.123)">
	
		<rect id="Rectangle_84" x="9.2" y="77" transform="matrix(0.9656 -0.2599 0.2599 0.9656 -28.8634 55.0101)" class="st0" width="368.8" height="119.3"/>
	<path id="Path_32" d="M167.1,121.8l4,15l8.5,31.7l19.4-5.2l-1.6-5.9l-9.1,2.4l-11-40.8L167.1,121.8z"/>
	<g id="Group_126" transform="translate(163.175 62.626)">
		<g>
			<defs>
				
					<rect id="SVGID_1_" x="7.3" y="21.1" transform="matrix(0.9657 -0.2596 0.2596 0.9657 -12.5288 26.2546)" width="171.6" height="79"/>
			</defs>
			<clipPath id="SVGID_00000050649417528817771470000003406280241694529696_">
				<use xlink:href="#SVGID_1_"  style="overflow:visible;"/>
			</clipPath>
			
				<g id="Group_125" transform="translate(0 0)" style="clip-path:url(#SVGID_00000050649417528817771470000003406280241694529696_);">
				<path id="Path_33" d="M59.2,85.9c0.8,2.5,0.1,5.3-1.7,7.2c-2.2,2.3-4.9,3.8-8,4.5c-2.9,0.9-6.1,1-9,0.2
					c-2.6-0.7-4.6-2.8-5.2-5.4L24.8,53.5l10.2-2.7l10.6,39.4c0.1,0.4,0.4,0.7,0.7,0.9c0.5,0.2,1,0.2,1.5,0c0.5-0.1,0.9-0.3,1.2-0.7
					c0.2-0.3,0.3-0.8,0.1-1.1L38.6,49.8l10.2-2.7L59.2,85.9z"/>
				<path id="Path_34" d="M85,87.4l-19.4,5.2L53.1,45.9l10.3-2.8l11,40.8l9.1-2.4L85,87.4z"/>
				<path id="Path_35" class="st2" d="M108.5,72.6c0.8,2.5,0.1,5.3-1.7,7.2c-2.2,2.3-4.9,3.8-8,4.5c-2.9,0.9-6.1,1-9,0.2
					c-2.6-0.7-4.6-2.8-5.2-5.4L74.1,40.3l10.2-2.7l10.6,39.4c0.1,0.4,0.4,0.7,0.7,0.9c0.5,0.2,1,0.2,1.5,0c0.5-0.1,0.9-0.3,1.2-0.7
					c0.2-0.3,0.3-0.8,0.1-1.1L87.8,36.6L98,33.8L108.5,72.6z"/>
				
					<rect id="Rectangle_85" x="132" y="9.9" transform="matrix(0.9657 -0.2596 0.2596 0.9657 -8.2064 36.6432)" width="5.4" height="79"/>
				<path id="Path_36" class="st2" d="M170.4,76.6l-0.6-2.2l3.6,1.9l0.4,1.4L170.4,76.6z M181.1,75.4l1.4-0.4
					c0.3-0.1,0.5-0.2,0.7-0.5c0.1-0.3,0.2-0.6,0.1-0.8c-0.1-0.4-0.3-0.6-0.6-0.7c-0.2-0.1-0.5-0.1-0.8,0l-0.6-2.1
					c0.4-0.1,0.9-0.2,1.3-0.1c0.4,0,0.8,0.2,1.2,0.4c0.4,0.2,0.7,0.5,0.9,0.8c0.3,0.4,0.5,0.8,0.6,1.2c0.2,0.6,0.2,1.2,0,1.8
					c-0.1,0.5-0.4,1-0.8,1.4c-0.3,0.2-0.5,0.4-0.9,0.6c-0.4,0.2-0.8,0.3-1.2,0.4l-3.4,0.9c-0.4,0.1-0.8,0.2-1.2,0.2
					c-0.3,0-0.7,0-1-0.1c-0.5-0.1-1-0.4-1.4-0.8c-0.4-0.4-0.7-1-0.9-1.6c-0.1-0.4-0.2-0.9-0.1-1.4c0.1-0.4,0.2-0.8,0.4-1.2
					c0.2-0.4,0.5-0.7,0.9-0.9c0.4-0.3,0.8-0.4,1.2-0.6l2.9-0.8L181.1,75.4z M179.4,75.8l-0.6-2.1l-1.2,0.3c-0.3,0.1-0.6,0.2-0.8,0.5
					c-0.3,0.5-0.1,1.2,0.4,1.5c0.3,0.1,0.7,0.2,1,0L179.4,75.8z"/>
				<path id="Path_37" class="st2" d="M166.5,62.1l-0.6-2.2l3.6,1.9l0.4,1.4L166.5,62.1z M177.2,60.8l1.4-0.4
					c0.3-0.1,0.5-0.2,0.7-0.5c0.1-0.3,0.2-0.6,0.1-0.8c-0.1-0.4-0.3-0.6-0.6-0.7c-0.2-0.1-0.5-0.1-0.8,0l-0.6-2.1
					c0.4-0.1,0.9-0.2,1.3-0.1c0.4,0,0.8,0.2,1.2,0.4c0.4,0.2,0.7,0.5,0.9,0.8c0.3,0.4,0.5,0.8,0.6,1.2c0.2,0.6,0.2,1.2,0,1.8
					c-0.1,0.5-0.4,1-0.8,1.4c-0.3,0.2-0.5,0.4-0.9,0.6c-0.4,0.2-0.8,0.3-1.2,0.4l-3.4,0.9c-0.4,0.1-0.8,0.2-1.2,0.2
					c-0.9,0.1-1.8-0.2-2.4-0.8c-0.4-0.4-0.7-1-0.9-1.6c-0.1-0.4-0.2-0.9-0.1-1.4c0.1-0.4,0.2-0.8,0.4-1.2c0.2-0.4,0.5-0.7,0.9-0.9
					c0.4-0.3,0.8-0.4,1.2-0.6l2.9-0.8L177.2,60.8z M175.5,61.3l-0.6-2.1l-1.2,0.3c-0.3,0.1-0.6,0.2-0.8,0.5
					c-0.3,0.5-0.1,1.2,0.4,1.5c0.3,0.1,0.7,0.2,1,0L175.5,61.3z"/>
				<path id="Path_38" class="st2" d="M183.1,65l0.5,1.9l-9.7,5.5l-0.6-2.2l6.3-3.2l0,0l-7.1,0.4l-0.6-2.2L183.1,65z"/>
				<path id="Path_39" class="st2" d="M169.6,56.8l-0.6-2.1l1-0.3l0,0c-0.4-0.1-0.7-0.3-1-0.6c-0.3-0.3-0.5-0.7-0.6-1.1
					c-0.1-0.3-0.1-0.5-0.1-0.8c0-0.3,0.1-0.6,0.3-0.8c0.2-0.3,0.4-0.5,0.7-0.7c0.3-0.2,0.7-0.4,1.1-0.5l8-2.2l0.6,2.1l-7.2,1.9
					c-0.3,0.1-0.6,0.2-0.8,0.5c-0.2,0.2-0.2,0.6-0.1,0.9c0.1,0.3,0.3,0.6,0.6,0.7c0.4,0.1,0.8,0.1,1.1-0.1l7-1.9l0.6,2.1L169.6,56.8
					z"/>
				<path id="Path_40" class="st2" d="M173,45.2l1.4-0.4c0.3-0.1,0.5-0.2,0.7-0.5c0.1-0.3,0.2-0.6,0.1-0.8c-0.1-0.4-0.3-0.6-0.6-0.7
					c-0.2-0.1-0.5-0.1-0.8,0l-0.6-2.1c0.4-0.1,0.9-0.2,1.3-0.1c0.4,0,0.8,0.2,1.2,0.4c0.4,0.2,0.7,0.5,0.9,0.8
					c0.3,0.4,0.5,0.8,0.6,1.2c0.2,0.6,0.2,1.2,0,1.8c-0.1,0.5-0.4,1-0.8,1.4c-0.3,0.2-0.5,0.4-0.9,0.6c-0.4,0.2-0.8,0.3-1.2,0.4
					L171,48c-0.4,0.1-0.8,0.2-1.2,0.2c-0.9,0.1-1.8-0.2-2.4-0.8c-0.4-0.4-0.7-1-0.9-1.6c-0.1-0.4-0.2-0.9-0.1-1.4
					c0.1-0.4,0.2-0.8,0.4-1.2c0.2-0.4,0.5-0.7,0.9-0.9c0.4-0.3,0.8-0.4,1.2-0.6l2.9-0.8L173,45.2z M171.3,45.6l-0.6-2.1l-1.2,0.3
					c-0.3,0.1-0.6,0.2-0.8,0.5c-0.3,0.5-0.1,1.2,0.4,1.5c0.3,0.1,0.7,0.1,1,0L171.3,45.6z"/>
				<path id="Path_41" class="st2" d="M165.4,41.1l-0.6-2.1l1-0.3l0,0c-0.4-0.1-0.7-0.3-1-0.6c-0.3-0.3-0.5-0.7-0.6-1.1
					c-0.1-0.4-0.1-0.8,0-1.2c0.1-0.3,0.3-0.7,0.5-0.9c-0.4-0.2-0.7-0.4-1-0.7c-0.3-0.3-0.6-0.8-0.7-1.2c-0.1-0.3-0.1-0.6-0.1-0.8
					c0-0.3,0.1-0.6,0.2-0.9c0.2-0.3,0.4-0.5,0.7-0.7c0.3-0.2,0.7-0.4,1.1-0.5l8-2.2l0.6,2.1l-7.2,1.9c-0.3,0.1-0.6,0.3-0.8,0.5
					c-0.2,0.2-0.2,0.6-0.1,0.9c0.1,0.3,0.3,0.6,0.6,0.7c0.4,0.1,0.8,0.1,1.1-0.1l7-1.9l0.6,2.1l-7.2,1.9c-0.3,0.1-0.6,0.2-0.8,0.5
					c-0.2,0.2-0.2,0.6-0.1,0.9c0.1,0.3,0.3,0.6,0.6,0.7c0.4,0.1,0.8,0.1,1.1-0.1l7-1.9l0.6,2.1L165.4,41.1z"/>
				<path id="Path_42" class="st2" d="M167.6,25.4l1.4-0.4c0.3-0.1,0.5-0.2,0.7-0.5c0.1-0.3,0.2-0.6,0.1-0.8
					c-0.1-0.4-0.3-0.6-0.6-0.7c-0.2-0.1-0.5-0.1-0.8,0l-0.6-2.1c0.4-0.1,0.9-0.2,1.3-0.1c0.4,0,0.8,0.2,1.2,0.4
					c0.4,0.2,0.7,0.5,0.9,0.8c0.3,0.4,0.5,0.8,0.6,1.2c0.2,0.6,0.2,1.2,0,1.8c-0.1,0.5-0.4,1-0.8,1.4c-0.3,0.2-0.5,0.4-0.9,0.6
					c-0.4,0.2-0.8,0.3-1.2,0.4l-3.4,0.9c-0.4,0.1-0.8,0.2-1.2,0.2c-0.9,0.1-1.8-0.2-2.4-0.8c-0.4-0.4-0.7-1-0.9-1.6
					c-0.1-0.4-0.2-0.9-0.1-1.4c0.1-0.4,0.2-0.8,0.4-1.2c0.2-0.4,0.5-0.7,0.9-0.9c0.4-0.3,0.8-0.4,1.2-0.6l2.9-0.8L167.6,25.4z
					 M166,25.8l-0.6-2.1l-1.2,0.3c-0.3,0.1-0.6,0.2-0.8,0.5c-0.3,0.5-0.1,1.2,0.4,1.5c0.3,0.1,0.7,0.2,1,0L166,25.8z"/>
				<path id="Path_43" class="st2" d="M160.1,21.3l-0.6-2.1l1-0.3l0,0c-0.4-0.1-0.7-0.3-1-0.6c-0.3-0.3-0.5-0.7-0.6-1.1
					c-0.1-0.3-0.1-0.5-0.1-0.8c0-0.3,0.1-0.6,0.3-0.8c0.2-0.3,0.4-0.5,0.7-0.7c0.3-0.2,0.7-0.4,1.1-0.5l8-2.2l0.6,2.1l-7.2,1.9
					c-0.3,0.1-0.6,0.2-0.8,0.5c-0.2,0.2-0.2,0.6-0.1,0.9c0,0.3,0.3,0.6,0.6,0.7c0.4,0.1,0.8,0.1,1.1-0.1l7-1.9l0.6,2.1L160.1,21.3z"
					/>
				<path id="Path_44" class="st2" d="M154.8,14.1l-0.6-2.1l3.2-0.9L157,9.8l1.6-0.4l0.3,1.3l5.8-1.6c0.2,0,0.4-0.1,0.6-0.2
					c0.1-0.1,0.2-0.2,0.2-0.3c0-0.1,0-0.3,0-0.4c0-0.2-0.1-0.4-0.1-0.6l2-0.5l0.2,0.9c0.1,0.4,0.2,0.8,0.1,1.3
					c-0.1,0.3-0.2,0.7-0.4,0.9c-0.2,0.3-0.4,0.5-0.7,0.6c-0.3,0.2-0.5,0.3-0.8,0.4l-6.4,1.7l0.3,1.1l-1.6,0.4l-0.3-1.1L154.8,14.1z"
					/>
				<path id="Path_45" class="st2" d="M158.7,4.4c-0.3,0.1-0.6,0.3-0.7,0.6c-0.1,0.2-0.1,0.5-0.1,0.8c0.1,0.3,0.3,0.5,0.5,0.7
					c0.2,0.1,0.5,0.1,0.8,0.1c0.2-0.1,0.4-0.2,0.5-0.3c0.2-0.3,0.3-0.6,0.3-0.9l0.2-1.4c0-0.7,0.3-1.4,0.8-2c0.4-0.4,1-0.7,1.6-0.9
					c0.4-0.1,0.9-0.1,1.3-0.1c0.4,0.1,0.8,0.2,1.2,0.4c0.4,0.2,0.7,0.5,0.9,0.8c0.3,0.4,0.5,0.8,0.6,1.2c0.1,0.4,0.1,0.8,0.1,1.2
					c0,0.4-0.1,0.8-0.3,1.1c-0.2,0.4-0.5,0.7-0.8,1c-0.4,0.3-0.8,0.5-1.3,0.7l-0.5-2c0.3-0.1,0.5-0.3,0.7-0.5
					c0.2-0.3,0.3-0.6,0.1-0.9c-0.1-0.3-0.3-0.6-0.5-0.7c-0.3-0.2-0.6-0.2-0.9-0.1c-0.3,0.1-0.5,0.2-0.7,0.4c-0.2,0.3-0.3,0.6-0.3,1
					l-0.1,1.1c-0.1,0.7-0.3,1.3-0.7,1.9c-0.4,0.5-1,0.9-1.6,1c-0.4,0.1-0.9,0.1-1.3,0.1c-0.4-0.1-0.8-0.2-1.1-0.4
					c-0.3-0.2-0.6-0.5-0.9-0.8c-0.3-0.3-0.4-0.7-0.5-1.1C155.6,5,156,3.7,157,3c0.3-0.3,0.7-0.4,1.1-0.6L158.7,4.4z"/>
			</g>
		</g>
	</g>
	<g class="st3">
		<path class="st2" d="M45.1,176.6l2.1-0.6l0.4,1.4l0.1,0c0.4-1.2,1.1-2,2.5-2.4c2.4-0.7,4.5,0.9,5.3,3.8c0.8,3-0.2,5.3-2.7,6
			c-1.2,0.3-2.4,0.1-3.2-0.7l-0.1,0c0.1,0.3,0.3,0.9,0.6,1.8l0.7,2.5l-2.2,0.6L45.1,176.6z M53.2,179.5c-0.5-1.8-1.6-3-3.1-2.6
			c-1.7,0.4-2.1,2.1-1.6,3.8s1.6,2.9,3.3,2.4C53.3,182.8,53.7,181.3,53.2,179.5z"/>
	</g>
	<g class="st3">
		<path class="st2" d="M58.3,174.9L58.3,174.9c0.3-1.4,1-2.2,2.2-2.5c0.3-0.1,0.4-0.1,0.6-0.1l0.5,2l-0.1,0c-0.2,0-0.4,0-0.6,0.1
			c-1.5,0.4-2.3,1.7-1.8,3.5l1.3,4.7l-2.2,0.6l-2.5-9.3l2.1-0.6L58.3,174.9z"/>
	</g>
	<g class="st3">
		<path class="st2" d="M63.2,176.8c-0.7-2.8,0.5-5.4,3.3-6.1c1.4-0.4,2.5-0.2,3.5,0.4c1.2,0.7,2,2.1,2.4,3.8l-6.9,1.9
			c0.6,1.6,1.7,2.4,3.3,2c1.1-0.3,1.6-0.9,1.7-1.8l2.2-0.6c0,1.8-1.2,3.4-3.4,4C66.3,181.2,63.9,179.5,63.2,176.8z M65.2,175.3
			l4.6-1.2c-0.5-1.5-1.6-2.2-2.9-1.8C65.5,172.6,65,173.8,65.2,175.3z M65.4,166.7L68,166l-1.1,3.2l-1.7,0.5L65.4,166.7z"/>
	</g>
	<g class="st3">
		<path class="st2" d="M73.7,175.8l2.1-0.6c0.5,1.1,1.5,1.3,2.6,1c1.2-0.3,1.7-1,1.4-1.8c-0.2-0.9-1.2-0.8-2.8-0.7
			c-1.8,0.1-3.6,0.2-4.2-1.9c-0.5-1.8,0.8-3.2,2.9-3.8c2.5-0.7,4,0.1,4.7,1.7l-2.1,0.6c-0.4-0.8-1.1-1-2.2-0.7
			c-1,0.3-1.4,0.9-1.3,1.5c0.2,0.8,1.2,0.7,2.7,0.6c1.8-0.1,3.7-0.2,4.3,2.1c0.5,1.9-0.9,3.4-3.2,4
			C76.3,178.5,74.4,177.7,73.7,175.8z"/>
	</g>
	<g class="st3">
		<path class="st2" d="M82.7,171.5c-0.7-2.8,0.5-5.4,3.3-6.1c1.4-0.4,2.5-0.2,3.5,0.4c1.2,0.7,2,2.1,2.4,3.8l-6.9,1.9
			c0.6,1.6,1.7,2.4,3.3,2c1.1-0.3,1.6-0.9,1.7-1.8l2.2-0.6c0,1.8-1.2,3.4-3.4,4C85.8,175.9,83.4,174.3,82.7,171.5z M84.7,170.1
			l4.6-1.2c-0.5-1.5-1.6-2.2-2.9-1.8C85,167.4,84.5,168.6,84.7,170.1z"/>
	</g>
	<g class="st3">
		<path class="st2" d="M94.6,164.8L94.6,164.8c0.4-1.2,1.2-2,2.5-2.4c2-0.5,3.5,0.4,4.1,2.4l1.7,6.3l-2.2,0.6l-1.6-5.9
			c-0.3-1.1-1.1-1.6-2.2-1.3c-1.2,0.3-1.9,1.5-1.5,2.8l1.5,5.4l-2.2,0.6l-2.5-9.3l2.2-0.6L94.6,164.8z"/>
	</g>
	<g class="st3">
		<path class="st2" d="M101.6,161.4l1.4-0.4l-0.8-3l2.2-0.6l0.8,3l1.9-0.5l0.4,1.5l-1.9,0.5l1.4,5.2c0.2,0.7,0.6,0.8,1.2,0.6
			c0.2-0.1,0.5-0.2,0.7-0.3l0.1,0l0.5,1.7c-0.3,0.2-0.8,0.4-1.4,0.5c-1.5,0.4-2.7,0.1-3.1-1.5l-1.5-5.7l-1.4,0.4L101.6,161.4z"/>
		<path class="st2" d="M109.4,164.3c-0.7-2.8,0.5-5.4,3.3-6.1c1.4-0.4,2.5-0.2,3.5,0.4c1.2,0.7,2,2.1,2.4,3.8l-6.9,1.9
			c0.6,1.6,1.7,2.4,3.3,2c1.1-0.3,1.6-0.9,1.7-1.8l2.2-0.6c0,1.8-1.2,3.4-3.4,4C112.5,168.8,110.2,167.1,109.4,164.3z M111.4,162.9
			l4.6-1.2c-0.5-1.5-1.6-2.2-2.9-1.8C111.7,160.2,111.2,161.4,111.4,162.9z M111.7,154.3l2.6-0.7l-1.1,3.2l-1.7,0.5L111.7,154.3z"/>
		<path class="st2" d="M123.2,155.6l2.1-0.6l0.4,1.4l0.1,0c0.4-1.2,1.1-2,2.5-2.4c2.4-0.7,4.5,0.9,5.3,3.8c0.8,3-0.2,5.3-2.7,6
			c-1.2,0.3-2.4,0.1-3.2-0.7l-0.1,0c0.1,0.3,0.3,0.9,0.6,1.8l0.7,2.5l-2.2,0.6L123.2,155.6z M131.3,158.5c-0.5-1.8-1.6-3-3.1-2.6
			c-1.7,0.4-2.1,2.1-1.6,3.8c0.5,1.8,1.6,2.9,3.3,2.4C131.4,161.8,131.8,160.3,131.3,158.5z"/>
		<path class="st2" d="M141.7,159.3L141.7,159.3c-0.4,1-1.1,1.8-2.6,2.2c-1.8,0.5-3.4-0.1-3.9-1.9c-0.6-2.1,0.9-3,3-3.9
			c1.5-0.6,2.2-1.1,2-1.9c-0.2-0.8-0.9-1.2-2-0.9c-1.2,0.3-1.7,1.1-1.5,2l-2.1,0.6c-0.4-1.6,0.5-3.4,3.2-4.1
			c1.1-0.3,1.9-0.3,2.6-0.1c1,0.3,1.7,1.1,2,2.3l1.3,4.9c0.2,0.8,0.5,1.1,0.7,1.2l0,0.2l-2.1,0.6
			C142.2,160.3,141.9,159.9,141.7,159.3z M141.2,157.1l-0.4-1.4c-0.4,0.4-1,0.8-1.6,1.1c-1.3,0.6-2,1.1-1.7,2.1
			c0.3,1,1.1,1.1,1.9,0.9C140.9,159.4,141.5,158.2,141.2,157.1z"/>
		<path class="st2" d="M146.3,151.2L146.3,151.2c0.3-1.4,1-2.2,2.2-2.5c0.3-0.1,0.4-0.1,0.6-0.1l0.5,2l-0.1,0c-0.2,0-0.4,0-0.6,0.1
			c-1.5,0.4-2.3,1.7-1.8,3.5l1.3,4.7l-2.2,0.6l-2.5-9.3l2.1-0.6L146.3,151.2z"/>
	</g>
</g>
</svg>
