<svg id="Group_132" data-name="Group 132" xmlns="http://www.w3.org/2000/svg" xmlns:xlink="http://www.w3.org/1999/xlink" width="737.894" height="620.003" viewBox="0 0 737.894 620.003">
  <defs>
    <clipPath id="clip-path">
      <rect id="Rectangle_93" data-name="Rectangle 93" width="737.893" height="615.003" fill="none"/>
    </clipPath>
  </defs>
  <path id="Path_47" data-name="Path 47" d="M626.545,0,292.322,271.273l-45.348-53.423L0,423.287,159.472,615,737.894,133.862Z" transform="translate(0)" fill="#fff"/>
  <rect id="Rectangle_88" data-name="Rectangle 88" width="18.37" height="88.108" transform="translate(241.959 388.97) rotate(-39.755)"/>
  <g id="Group_131" data-name="Group 131">
    <g id="Group_130" data-name="Group 130" transform="translate(0 5)" clip-path="url(#clip-path)">
      <path id="Path_48" data-name="Path 48" d="M451.658,579.911a29.807,29.807,0,1,1-41.976-3.855,29.805,29.805,0,0,1,41.976,3.855" transform="translate(-142.448 -203.232)" fill="#35b999"/>
      <rect id="Rectangle_89" data-name="Rectangle 89" width="18.623" height="63.363" transform="translate(349.134 299.819) rotate(-39.754)"/>
      <path id="Path_49" data-name="Path 49" d="M571.146,479.44a27.467,27.467,0,0,1,31.7-42.951l-7.2,17.108a8.772,8.772,0,0,0-6.179-.263,8.916,8.916,0,0,0-4.1,14.191Z" transform="translate(-201.654 -155.092)" fill="#ebe50d"/>
      <rect id="Rectangle_90" data-name="Rectangle 90" width="18.373" height="63.363" transform="translate(394.723 261.898) rotate(-39.754)" fill="#35b999"/>
      <path id="Path_50" data-name="Path 50" d="M610.289,364.642a9.749,9.749,0,1,1-13.729-1.261,9.747,9.747,0,0,1,13.729,1.261" transform="translate(-211.76 -128.948)"/>
      <path id="Path_51" data-name="Path 51" d="M757.387,306.606,743.96,290.464l-14.125,11.749,40.521,48.713,38.322-31.877-27.092-32.571Z" transform="translate(-260.603 -102.293)"/>
      <path id="Path_52" data-name="Path 52" d="M793.418,283.939a18.184,18.184,0,1,1-25.609-2.351,18.184,18.184,0,0,1,25.609,2.351" transform="translate(-271.822 -99.046)" fill="#ebe50d"/>
      <path id="Path_53" data-name="Path 53" d="M720.076,406.966a31.832,31.832,0,0,1-44.777-4.112c-.1-.119-.193-.237-.284-.356l.118.149L690.483,390.2l.082.1a12.039,12.039,0,0,0,20.918-10.465l19.273-4.364a31.677,31.677,0,0,1-10.68,31.489" transform="translate(-241.028 -134.072)"/>
      <path id="Path_54" data-name="Path 54" d="M676.658,345.734a31.734,31.734,0,0,0-4.227,44.536l48.791-40.585a31.734,31.734,0,0,0-44.563-3.951" transform="translate(-237.531 -120.832)" fill="#ec1a8d"/>
      <path id="Path_55" data-name="Path 55" d="M955.444,211.182a31.833,31.833,0,0,1-44.779-4.111c-.1-.12-.194-.237-.285-.356l.119.149,15.351-12.443c.026.036.053.068.08.1a12.04,12.04,0,0,0,20.918-10.466l19.273-4.364a31.676,31.676,0,0,1-10.678,31.487" transform="translate(-325.071 -64.164)"/>
      <path id="Path_56" data-name="Path 56" d="M912.027,149.95a31.732,31.732,0,0,0-4.227,44.536L956.588,153.9a31.732,31.732,0,0,0-44.561-3.953" transform="translate(-321.574 -50.923)" fill="#ec1a8d"/>
      <path id="Path_57" data-name="Path 57" d="M875.358,277.663a32.007,32.007,0,0,1-45.026-4.135c-.1-.118-.028-.381-.121-.5l.172.172,15.219-12.39c.027.035.11.211.138.245a12.137,12.137,0,0,0,20.976-10.664L886.1,246a31.854,31.854,0,0,1-10.738,31.662" transform="translate(-296.445 -87.84)" fill="#35b999"/>
      <path id="Path_58" data-name="Path 58" d="M827.727,261.395c-.105-.117.093.124-.006.005a31.976,31.976,0,0,1,37.222-49.819L857.1,229.837A12.106,12.106,0,0,0,842.921,248.6c.029.035.057.067.087.1l-7.58,6.318Z" transform="translate(-292.921 -74.614)"/>
      <path id="Path_59" data-name="Path 59" d="M306.5,654.852l-17.024,14.161,72.537,21.225,17.023-14.16Z" transform="translate(-103.363 -233.829)" fill="#ebe50d"/>
      <path id="Path_60" data-name="Path 60" d="M340.034,626.956l7.664,75.188,17.024-14.16-7.664-75.188Z" transform="translate(-121.416 -218.812)"/>
      <path id="Path_61" data-name="Path 61" d="M245.105,735.072,222.7,708.131,252.672,683.2l-20.949-25.184-29.977,24.935L187.623,694.7l0,0,20.949,25.184,0,0,22.41,26.941L242.7,760.908l.028.035,44.1-36.684-11.747-14.123Z" transform="translate(-66.994 -234.957)"/>
      <rect id="Rectangle_91" data-name="Rectangle 91" width="39.367" height="18.407" transform="matrix(0.769, -0.639, 0.639, 0.769, 141.547, 484.885)" fill="#ec1a8d"/>
      <rect id="Rectangle_92" data-name="Rectangle 92" width="23.164" height="15.322" transform="matrix(0.091, -0.996, 0.996, 0.091, 302.086, 315.041)"/>
      <path id="Path_62" data-name="Path 62" d="M533.129,562.472a31.834,31.834,0,0,1-44.779-4.111c-.1-.119-.192-.237-.283-.357l.117.15,15.351-12.442c.028.034.054.068.081.1a12.039,12.039,0,0,0,20.918-10.465l19.273-4.364a31.674,31.674,0,0,1-10.678,31.487" transform="translate(-174.275 -189.6)" fill="#ec1a8d"/>
      <path id="Path_63" data-name="Path 63" d="M489.711,501.239a31.731,31.731,0,0,0-4.228,44.536l48.79-40.584a31.734,31.734,0,0,0-44.562-3.952" transform="translate(-170.777 -176.358)"/>
    </g>
  </g>
  <text id="SALON" transform="matrix(0.769, -0.639, 0.639, 0.769, 109.452, 451.147)" font-size="51" font-family="NHaasGroteskTXPro-65Md, Neue Haas Grotesk Text Pro" font-weight="500"><tspan x="0" y="0" letter-spacing="-0.009em">S</tspan><tspan y="0">A</tspan><tspan y="0" letter-spacing="-0.029em">L</tspan><tspan y="0">ON</tspan></text>
</svg>
