<svg xmlns="http://www.w3.org/2000/svg" xmlns:xlink="http://www.w3.org/1999/xlink" width="754.906" height="675.315" viewBox="0 0 754.906 675.315">
  <defs>
    <clipPath id="clip-path">
      <rect id="Rectangle_146" data-name="Rectangle 146" width="777.648" height="239.241" fill="none"/>
    </clipPath>
  </defs>
  <g id="Group_166" data-name="Group 166" transform="translate(0 489.39) rotate(-39)">
    <path id="Path_87" data-name="Path 87" d="M.466,0,0,237.448l777.323,1.794L777.648.663Z" transform="translate(0 0)" fill="#fff"/>
    <rect id="Rectangle_141" data-name="Rectangle 141" width="92.504" height="19.287" transform="translate(207.042 203.666) rotate(-89.899)"/>
    <g id="Group_165" data-name="Group 165">
      <g id="Group_164" data-name="Group 164" clip-path="url(#clip-path)">
        <path id="Path_88" data-name="Path 88" d="M414.48,227.026a31.294,31.294,0,1,1-31.237-31.351,31.293,31.293,0,0,1,31.237,31.351" transform="translate(-144.803 -80.52)" fill="#35b999"/>
        <rect id="Rectangle_142" data-name="Rectangle 142" width="66.524" height="19.552" transform="translate(353.45 177.947) rotate(-89.898)"/>
        <path id="Path_89" data-name="Path 89" d="M600.632,226.012a28.837,28.837,0,0,1,54.45-13.286l-17.311,8.946a9.213,9.213,0,0,0-4.8-4.37,9.361,9.361,0,0,0-12.851,8.68Z" transform="translate(-247.16 -81.123)" fill="#ebe50d"/>
        <rect id="Rectangle_143" data-name="Rectangle 143" width="66.524" height="19.29" transform="translate(415.708 178.058) rotate(-89.899)" fill="#35b999"/>
        <path id="Path_90" data-name="Path 90" d="M727.444,150.818a10.235,10.235,0,1,1-10.216-10.254,10.234,10.234,0,0,1,10.216,10.254" transform="translate(-290.919 -57.842)"/>
        <path id="Path_91" data-name="Path 91" d="M898.653,211.909l.039-22.045-19.289-.035-.119,66.524,52.335.094.079-44.479Z" transform="translate(-361.825 -78.115)"/>
        <path id="Path_92" data-name="Path 92" d="M941.681,215.746a19.092,19.092,0,1,1-19.059-19.126,19.091,19.091,0,0,1,19.059,19.126" transform="translate(-371.789 -80.909)" fill="#ebe50d"/>
        <path id="Path_93" data-name="Path 93" d="M786.2,277.272a33.421,33.421,0,0,1-33.322-33.442c0-.163,0-.321.011-.478l-.005.2,20.744.3c0,.046,0,.091,0,.137a12.64,12.64,0,0,0,23.9,5.64l18.47,9.45A33.257,33.257,0,0,1,786.2,277.272" transform="translate(-309.807 -100.139)"/>
        <path id="Path_94" data-name="Path 94" d="M786.361,189.624a33.317,33.317,0,0,0-33.373,33.05l66.63.118a33.317,33.317,0,0,0-33.257-33.168" transform="translate(-309.854 -78.03)" fill="#ec1a8d"/>
        <path id="Path_95" data-name="Path 95" d="M1137.352,277.9a33.421,33.421,0,0,1-33.323-33.442c0-.163,0-.321.009-.478l0,.2,20.744.3c0,.046,0,.091,0,.137a12.641,12.641,0,0,0,23.9,5.64l18.47,9.45a33.258,33.258,0,0,1-29.793,18.193" transform="translate(-454.307 -100.396)"/>
        <path id="Path_96" data-name="Path 96" d="M1137.516,190.249a33.316,33.316,0,0,0-33.373,33.05l66.628.118a33.315,33.315,0,0,0-33.255-33.169" transform="translate(-454.354 -78.287)" fill="#ec1a8d"/>
        <path id="Path_97" data-name="Path 97" d="M1017.81,277.55A33.6,33.6,0,0,1,984.3,243.923c0-.161.234-.326.24-.486l.023.254,20.6.254c0,.047-.053.244-.053.291a12.743,12.743,0,0,0,24.081,5.518l18.572,9.5a33.443,33.443,0,0,1-29.958,18.294" transform="translate(-405.04 -100.174)" fill="#35b999"/>
        <path id="Path_98" data-name="Path 98" d="M984.307,223.379c-.006-.165-.009.162-.009,0a33.572,33.572,0,0,1,63.519-15.108l-18.606,9.436a12.71,12.71,0,0,0-24.052,5.585c0,.046,0,.092,0,.139l-10.36-.008Z" transform="translate(-405.038 -78.132)"/>
        <path id="Path_99" data-name="Path 99" d="M246.017,188.371l-23.249-.041,44.18,65.913,23.247.041Z" transform="translate(-91.669 -77.497)" fill="#ebe50d"/>
        <path id="Path_100" data-name="Path 100" d="M267.147,188.464l-44.413,65.755,23.249.041L290.4,188.5Z" transform="translate(-91.655 -77.553)"/>
        <path id="Path_101" data-name="Path 101" d="M124.067,218.309l.065-36.791,40.937.073.061-34.393-40.937-.072-19.287-.035h0l-.061,34.393h0l-.065,36.791-.034,19.239v.047l60.226.108.034-19.286Z" transform="translate(-43.103 -60.528)"/>
        <rect id="Rectangle_144" data-name="Rectangle 144" width="19.326" height="41.331" transform="matrix(0.002, -1, 1, 0.002, 61.708, 140.231)" fill="#ec1a8d"/>
        <rect id="Rectangle_145" data-name="Rectangle 145" width="24.32" height="16.087" transform="translate(305.408 92.034) rotate(-44.899)"/>
        <path id="Path_102" data-name="Path 102" d="M507.284,276.775a33.422,33.422,0,0,1-33.324-33.442c0-.163.005-.321.012-.478l-.007.2,20.744.3c0,.046,0,.091,0,.137a12.64,12.64,0,0,0,23.9,5.64l18.47,9.45a33.256,33.256,0,0,1-29.791,18.193" transform="translate(-195.034 -99.934)" fill="#ec1a8d"/>
        <path id="Path_103" data-name="Path 103" d="M507.447,189.127a33.314,33.314,0,0,0-33.373,33.05l66.63.118a33.318,33.318,0,0,0-33.256-33.169" transform="translate(-195.081 -77.826)"/>
        <path id="Path_104" data-name="Path 104" d="M260.6,89.337a2.5,2.5,0,1,0-2.79-2.486,2.578,2.578,0,0,0,2.79,2.486" transform="translate(-106.087 -34.716)"/>
        <path id="Path_105" data-name="Path 105" d="M323.569,100.486c-2.486-.758-3.092-1.243-3.092-2.608a1.88,1.88,0,0,1,2.03-1.911c1.79,0,2.821,1.3,3.307,3.64h1.7v-3.7a10.681,10.681,0,0,0-4.731-1c-3.428,0-5.672,2.245-5.672,4.7s1.122,3.761,4.823,4.882c2.516.759,3.093,1.335,3.093,2.548,0,1.183-.88,2-2.365,2-2,0-3.457-1.456-3.973-3.883h-1.668v3.883a14.109,14.109,0,0,0,5.367,1.062c3.186,0,5.975-1.729,5.975-4.853,0-2.306-1.092-3.639-4.792-4.762" transform="translate(-130.453 -39.053)"/>
        <path id="Path_106" data-name="Path 106" d="M296.147,100.352c.091-2.941,1.03-4.457,2.547-4.457,1.487,0,2.273,1.275,2.365,4.457ZM299.6,94.8a7.9,7.9,0,0,0-7.734,8.158c0,4.641,3.124,7.158,6.884,7.158a8.337,8.337,0,0,0,6.792-3.366l-.394-.486a5.7,5.7,0,0,1-3.609,1.182c-3,0-5.155-2.214-5.367-5.944h9.613c-.061-4.155-1.911-6.7-6.186-6.7" transform="translate(-120.104 -39.011)"/>
        <path id="Path_107" data-name="Path 107" d="M261.681,105.249V95.424l-.545-.365L255.1,96.3v.486l.577.364c.97.606,1.244,1.121,1.244,2.851v5.246c0,3.276-.274,3.792-1.275,4l-.547.122v.606c.637,0,3.064-.03,4.338-.03s3.426.03,4.064.03v-.606l-.546-.122c-1-.212-1.274-.728-1.274-4" transform="translate(-104.973 -39.117)"/>
        <path id="Path_108" data-name="Path 108" d="M278.572,98.97a17.492,17.492,0,0,0,3.639.7c.789,0,1.457-.759,1.457-2.76a1.8,1.8,0,0,0-1.972-1.972c-1.365,0-2.214.425-4.247,3.337v-3l-.545-.364-6.036,1.243v.486l.576.363c.971.607,1.243,1.122,1.243,2.851v5.337c0,3.276-.272,3.791-1.273,4l-.546.122v.606c.637,0,2.791-.031,4.065-.031s4.306.031,5,.031v-.606l-.363-.092c-1.851-.456-2.125-.728-2.125-4.064V99.394a11.547,11.547,0,0,1,1.122-.425" transform="translate(-111.462 -39.054)"/>
        <path id="Path_109" data-name="Path 109" d="M114.286,105.694v-.606l-.546-.122c-1-.211-1.274-.728-1.274-4V85.006l-.546-.364-6.036,1.244v.486l.576.363c.97.607,1.244,1.122,1.244,2.851v11.377c0,3.276-.273,3.792-1.275,4l-.545.122v.606c.637,0,3.063-.029,4.336-.029s3.428.029,4.065.029" transform="translate(-43.572 -34.83)"/>
        <path id="Path_110" data-name="Path 110" d="M126.467,95.895c1.487,0,2.275,1.274,2.366,4.457h-4.912c.09-2.94,1.03-4.457,2.546-4.457m.061,14.224a8.338,8.338,0,0,0,6.794-3.367l-.394-.485a5.707,5.707,0,0,1-3.609,1.182c-3,0-5.156-2.213-5.368-5.944h9.613c-.061-4.155-1.91-6.7-6.186-6.7a7.9,7.9,0,0,0-7.734,8.158c0,4.641,3.123,7.158,6.884,7.158" transform="translate(-49.233 -39.011)"/>
        <path id="Path_111" data-name="Path 111" d="M156.289,105.247c0-2.305-1.093-3.639-4.792-4.761-2.488-.758-3.094-1.243-3.094-2.609a1.88,1.88,0,0,1,2.031-1.91c1.79,0,2.821,1.3,3.306,3.639h1.7v-3.7a10.692,10.692,0,0,0-4.732-1c-3.426,0-5.671,2.245-5.671,4.7s1.122,3.761,4.821,4.883c2.518.758,3.094,1.335,3.094,2.548,0,1.182-.879,2-2.365,2-2,0-3.459-1.457-3.974-3.883h-1.668v3.883a14.127,14.127,0,0,0,5.367,1.062c3.186,0,5.976-1.73,5.976-4.854" transform="translate(-59.645 -39.053)"/>
        <path id="Path_112" data-name="Path 112" d="M216.5,84.406a8.039,8.039,0,0,0-4.823,1.638,7.99,7.99,0,0,0-4.277-1.03c-4,0-7.3,2.422-7.807,5.859l-2.322.835v.88h2.275v8.279c0,3.276-.273,3.792-1.275,4l-.546.122v.606c.637,0,2.79-.029,4.065-.029s3.547.029,4.245.029v-.606l-.364-.092c-1.092-.272-1.365-.788-1.365-3.457V92.587h4.337v8.855c0,2.669-.272,3.185-1.365,3.457l-.364.092v.606c.637,0,2.7-.029,3.974-.029s4.307.029,5,.029v-.606l-.364-.092c-1.85-.454-2.122-.727-2.122-4.064V92.587h3.517V90.949h-3.517V90.32c0-1.88.211-3.245,1.152-4.155,1.819,2.063,2.85,2.73,3.912,2.73,1.031,0,1.76-1.183,1.76-2.456,0-1.031-1.487-2.033-3.731-2.033m-7.814,6.543h-4.379v-.022c0-2.214.3-4.4,2.245-4.4,1.213,0,2.092.971,2.7,2.456a6.5,6.5,0,0,0-.565,1.963" transform="translate(-81.179 -34.733)"/>
        <path id="Path_113" data-name="Path 113" d="M180.817,107.352a4.15,4.15,0,0,1-1.334.152c-1.426,0-2.548-.7-2.548-1.972,0-1.062.637-1.7,1.879-2.336a20.339,20.339,0,0,1,2-.819h0Zm5.762,2.007c-.614.025-1-.361-1-1.176V99.314c0-2.911-1.426-4.306-5.1-4.306-4.336,0-6.975,2.609-6.975,3.973a1.8,1.8,0,0,0,1.848,1.851c1.213,0,1.881-.91,2.427-4.247a2.293,2.293,0,0,1,.7-.091c1.3,0,2.336.577,2.336,3.154v1.85c-1.183.272-2.3.546-3.457.909-3.457,1.092-4.641,2-4.641,4.245a3.543,3.543,0,0,0,3.67,3.519,5.81,5.81,0,0,0,4.488-2.154,3.29,3.29,0,0,0,3.275,2.154,17.586,17.586,0,0,0,2.594-.213v-.607l-.167.006" transform="translate(-71.074 -39.096)"/>
        <path id="Path_114" data-name="Path 114" d="M237.869,107.352a4.149,4.149,0,0,1-1.335.152c-1.425,0-2.547-.7-2.547-1.972,0-1.062.637-1.7,1.88-2.336a20.086,20.086,0,0,1,2-.818h0Zm5.761,2.007c-.614.025-1-.361-1-1.176V99.315c0-2.911-1.425-4.307-5.1-4.307-4.337,0-6.976,2.609-6.976,3.973a1.8,1.8,0,0,0,1.85,1.85c1.213,0,1.881-.909,2.426-4.244a2.257,2.257,0,0,1,.7-.092c1.3,0,2.334.577,2.334,3.155V101.5c-1.182.274-2.305.547-3.457.91-3.456,1.092-4.639,2-4.639,4.247a3.542,3.542,0,0,0,3.669,3.518,5.808,5.808,0,0,0,4.488-2.154,3.292,3.292,0,0,0,3.277,2.154,17.675,17.675,0,0,0,2.592-.212v-.608l-.168.006" transform="translate(-94.551 -39.096)"/>
        <path id="Path_115" data-name="Path 115" d="M107.448,63.551v.1c.045,2.034,1.143,3.281,2.629,3.281a2.607,2.607,0,0,0,1.99-.906l.193.149a3.7,3.7,0,0,1-3.059,1.737,3.208,3.208,0,0,1-3.3-3.5,3.723,3.723,0,0,1,3.535-3.906c1.915,0,2.837,1.069,2.881,3.044Zm3.118-.4c-.044-1.5-.578-2.257-1.44-2.257-.966,0-1.59.832-1.678,2.257Zm-.594-4.143-1.515.965-.164-.148.847-1.56c.386-.713.624-.965,1.069-.965a.635.635,0,0,1,.668.653c0,.4-.312.669-.906,1.055" transform="translate(-43.579 -23.579)"/>
        <path id="Path_116" data-name="Path 116" d="M125.65,63.3l-.238.045c-.55.1-.8.415-1.322,1.618l-2.3,5.3-.371.074-2.406-5.42c-.549-1.233-.7-1.471-1.322-1.574l-.252-.045v-.223c.357,0,1.277.015,1.916.015s1.6-.015,1.945-.015V63.3l-.3.045c-.445.074-.579.222-.579.46a2.51,2.51,0,0,0,.193.817l1.515,3.832,1.248-3.209a4.247,4.247,0,0,0,.356-1.336c0-.3-.193-.5-.594-.564l-.327-.045v-.223c.356,0,.876.015,1.5.015s.98-.015,1.336-.015Z" transform="translate(-48.325 -25.956)"/>
        <path id="Path_117" data-name="Path 117" d="M133.592,63.551v.1c.045,2.034,1.143,3.281,2.629,3.281a2.607,2.607,0,0,0,1.99-.906l.193.149a3.7,3.7,0,0,1-3.059,1.737,3.208,3.208,0,0,1-3.3-3.5,3.723,3.723,0,0,1,3.535-3.906c1.915,0,2.837,1.069,2.881,3.044Zm3.118-.4c-.044-1.5-.579-2.257-1.44-2.257-.966,0-1.59.832-1.678,2.257Zm-.594-4.143-1.515.965-.164-.148.847-1.56c.386-.713.624-.965,1.069-.965a.635.635,0,0,1,.668.653c0,.4-.312.669-.906,1.055" transform="translate(-54.338 -23.579)"/>
        <path id="Path_118" data-name="Path 118" d="M152.234,70.032c-.327,0-1.173-.015-1.812-.015s-1.47.015-1.827.015v-.223l.238-.044c.639-.119.757-.312.757-1.618V65.339c0-1.084-.476-1.619-1.306-1.619a2.442,2.442,0,0,0-1.5.55v3.876c0,1.306.1,1.5.757,1.618l.238.044v.223c-.356,0-1.188-.015-1.827-.015s-1.485.015-1.827.015v-.223l.282-.044c.594-.089.713-.312.713-1.738v-3.1c0-.773-.134-.98-.653-1.233l-.356-.178v-.164l2.48-.549.193.134v1a3.719,3.719,0,0,1,2.435-1.114c1.322,0,2.034.713,2.034,2.213v3c0,1.456.119,1.634.728,1.738l.252.044Z" transform="translate(-59.302 -25.842)"/>
        <path id="Path_119" data-name="Path 119" d="M160.367,65.794v.1c.044,2.034,1.143,3.281,2.628,3.281a2.608,2.608,0,0,0,1.99-.906l.193.148a3.7,3.7,0,0,1-3.059,1.738,3.208,3.208,0,0,1-3.3-3.5,3.723,3.723,0,0,1,3.535-3.906c1.916,0,2.837,1.069,2.881,3.044Zm3.118-.4c-.045-1.5-.579-2.257-1.441-2.257-.965,0-1.589.832-1.678,2.257Z" transform="translate(-65.355 -25.822)"/>
        <path id="Path_120" data-name="Path 120" d="M183.315,70.032c-.327,0-1.159-.015-1.8-.015s-1.471.015-1.842.015v-.223l.253-.044c.639-.119.742-.312.742-1.618V65.339c0-1.084-.416-1.619-1.248-1.619a2.428,2.428,0,0,0-1.53.594,5.521,5.521,0,0,1,.059.742v2.97c0,1.456.1,1.619.743,1.738l.238.044v.223c-.327,0-1.173-.015-1.812-.015s-1.47.015-1.827.015v-.223l.238-.044c.639-.119.757-.312.757-1.618V65.339c0-1.084-.431-1.619-1.262-1.619a2.426,2.426,0,0,0-1.47.55v3.876c0,1.306.1,1.5.757,1.618l.237.044v.223c-.356,0-1.218-.015-1.856-.015s-1.456.015-1.8.015v-.223l.282-.044c.594-.089.712-.312.712-1.738v-3.1c0-.773-.133-.98-.653-1.233l-.356-.178v-.164l2.48-.549.193.134v1a3.686,3.686,0,0,1,2.421-1.114,1.688,1.688,0,0,1,1.841,1.218,3.929,3.929,0,0,1,2.539-1.218c1.322,0,1.975.713,1.975,2.213v3c0,1.456.119,1.634.728,1.738l.252.044Z" transform="translate(-70.319 -25.842)"/>
        <path id="Path_121" data-name="Path 121" d="M194.46,65.794v.1c.044,2.034,1.143,3.281,2.628,3.281a2.608,2.608,0,0,0,1.99-.906l.193.148a3.7,3.7,0,0,1-3.058,1.738,3.208,3.208,0,0,1-3.3-3.5,3.723,3.723,0,0,1,3.535-3.906c1.916,0,2.837,1.069,2.881,3.044Zm3.118-.4c-.045-1.5-.579-2.257-1.441-2.257-.965,0-1.589.832-1.678,2.257Z" transform="translate(-79.384 -25.822)"/>
        <path id="Path_122" data-name="Path 122" d="M213.1,70.032c-.327,0-1.173-.015-1.812-.015-.624,0-1.47.015-1.826.015v-.223l.237-.044c.639-.119.757-.312.757-1.618V65.339c0-1.084-.475-1.619-1.306-1.619a2.444,2.444,0,0,0-1.5.55v3.876c0,1.306.1,1.5.757,1.618l.237.044v.223c-.356,0-1.188-.015-1.826-.015s-1.485.015-1.827.015v-.223l.283-.044c.593-.089.712-.312.712-1.738v-3.1c0-.773-.133-.98-.653-1.233l-.356-.178v-.164l2.48-.549.193.134v1a3.721,3.721,0,0,1,2.435-1.114c1.322,0,2.035.713,2.035,2.213v3c0,1.456.118,1.634.727,1.738l.252.044Z" transform="translate(-84.348 -25.842)"/>
        <path id="Path_123" data-name="Path 123" d="M223.815,67.821a2.965,2.965,0,0,1-1.99.862,1.518,1.518,0,0,1-1.737-1.738V62.192h-1.055v-.267l1.129-.431,1.114-2.227h.46v2.287h1.916v.639h-1.916V66.9c0,.7.342,1.039.906,1.039a1.547,1.547,0,0,0,1-.357Z" transform="translate(-90.132 -24.388)"/>
        <path id="Path_124" data-name="Path 124" d="M231.139,70.15a5.8,5.8,0,0,1-2.465-.519V67.983h.594c.252,1.2.861,1.812,1.99,1.812a1.2,1.2,0,0,0,1.366-1.188c0-.7-.356-1-1.663-1.411-1.618-.506-2.243-1.1-2.243-2.257A2.334,2.334,0,0,1,231.3,62.8a4.645,4.645,0,0,1,2.139.476v1.6h-.609c-.237-1.115-.668-1.723-1.618-1.723a1.144,1.144,0,0,0-1.248,1.172c0,.728.4,1.026,1.634,1.412,1.708.52,2.272,1.129,2.272,2.242,0,1.411-1.352,2.167-2.732,2.167" transform="translate(-94.099 -25.842)"/>
      </g>
    </g>
  </g>
</svg>
