<svg xmlns="http://www.w3.org/2000/svg" xmlns:xlink="http://www.w3.org/1999/xlink" width="523.179" height="471.559" viewBox="0 0 523.179 471.559">
  <defs>
    <clipPath id="clip-path">
      <rect id="Rectangle_96" data-name="Rectangle 96" width="487.495" height="430.71" transform="translate(0 0)" fill="#35b999"/>
    </clipPath>
  </defs>
  <g id="Group_138" data-name="Group 138" transform="matrix(-0.996, -0.087, 0.087, -0.996, 485.64, 471.559)">
    <g id="Group_137" data-name="Group 137" transform="translate(0 0)" clip-path="url(#clip-path)">
      <!-- Animate the opacity of Path_68 to create a wink effect -->
      <path id="Path_68" data-name="Path 68" d="M191.125,115.469A104.446,104.446,0,0,0,0,47.058L58.982,85.82A33.367,33.367,0,0,1,77.934,71.892a33.9,33.9,0,0,1,43.016,36.116Z" transform="translate(274.536 315.242)" fill="#35b999">
          <animate id="op" attributeType="CSS" attributeName="opacity" from="1" to="0" dur="0.1s" begin="3s;op.end+10s"/>
      </path>
      <path id="Path_69" data-name="Path 69" d="M394.885,210.923a208.329,208.329,0,0,0-14.765-78.663C337.567,24.916,215.62-27.8,108.284,14.733A209.431,209.431,0,0,0,0,112.117l125.346,65.713a66.914,66.914,0,0,1,35.07-31.531,67.983,67.983,0,0,1,92.963,63.585Z" transform="translate(92.604 0)" fill="#35b999"/>
      <path id="Path_70" data-name="Path 70" d="M195.541,108.068a98.024,98.024,0,1,0-107.548,87.47,98.02,98.02,0,0,0,107.548-87.47" transform="translate(0 221.927)" fill="#35b999"/>
    </g>
  </g>
</svg>
