<?xml version="1.0" encoding="utf-8"?>
<!-- Generator: Adobe Illustrator 27.9.0, SVG Export Plug-In . SVG Version: 6.00 Build 0)  -->
<svg version="1.1" id="Layer_1" xmlns="http://www.w3.org/2000/svg" xmlns:xlink="http://www.w3.org/1999/xlink" x="0px" y="0px"
	 viewBox="0 0 190.2 103.8" style="enable-background:new 0 0 190.2 103.8;" xml:space="preserve">
<style type="text/css">
	.st0{fill:#EC1A8D;}
	.st1{enable-background:new    ;}
</style>
<path id="Path_214" class="st0" d="M15.1,43L151.7,0l38.5,79.4l-40,24.4l-44.7-26.4l-76,18.1L15.1,43z"/>
<g class="st1">
	<path d="M44.8,68c1-2.1,2.8-4.1,4.1-5.7c0.8-1.1,1.3-2,0.9-3.1c-0.4-1.4-1.5-2.1-2.9-1.7c-0.9,0.2-1.4,0.7-1.7,1.3
		c-0.4,0.7-0.4,1.6-0.1,2.6l-3.6,1c-0.5-1.6-0.5-3,0-4.2c0.5-1.7,2.1-3.1,4.6-3.8c3.8-1.1,6.6,0.6,7.5,3.5c0.5,1.9,0,3.4-0.9,4.7
		c-1.3,2-3.5,3.8-4.3,5.8l0,0.1l7.5-2.2l0.9,3.1l-12.6,3.6C43.8,71,44,69.5,44.8,68z"/>
	<path d="M59.8,50.1l7.6-2.2c2-0.6,3.7-0.5,5,0.3c1.3,0.7,2.3,2,2.8,3.6c0.9,3.3-0.6,6.1-4.2,7.2L67,60.1l1.7,6l-4,1.1L59.8,50.1z
		 M66.1,57l3.3-1c1.7-0.5,2.3-1.7,1.9-3.1c-0.4-1.5-1.6-2.1-3.2-1.6l-3.4,1L66.1,57z"/>
	<path d="M77.6,54.3c-1.5-5.1,0.7-9.9,5.9-11.4c5.2-1.5,9.6,1.4,11,6.5c1.5,5.1-0.7,9.9-5.9,11.4C83.4,62.3,79.1,59.4,77.6,54.3z
		 M90.5,50.6c-0.9-3.3-3.1-5.3-6.1-4.5c-3,0.9-3.8,3.8-2.8,7.1c0.9,3.2,3.2,5.3,6.1,4.4C90.7,56.7,91.5,53.8,90.5,50.6z"/>
	<path d="M97.3,51.4l-3.2-11.2l3.9-1.1l3.2,11.3c0.5,1.9,1.9,2.7,4.1,2.1c2.1-0.6,2.8-2.1,2.2-4l-3.2-11.2l3.9-1.1l3.2,11.2
		c1.1,4-0.7,7-5.3,8.3C101.6,57,98.5,55.5,97.3,51.4z"/>
	<path d="M111,35.4l8.2-2.3c3.3-1,6.4,0.1,7.3,3.2c0.6,2,0,3.7-2,5.1l0,0.1c1.9,0,2.9,0.8,3.7,2.5c1,2.2,1.4,4.2,2,4.3l0.1,0.2
		l-3.9,1.1c-0.5-0.1-1-2-1.8-3.8c-0.7-1.6-1.8-2.3-3.7-1.7l-2.9,0.8l1.9,6.6l-3.9,1.1L111,35.4z M117.1,42l3.5-1
		c1.8-0.5,2.4-1.7,2.1-3c-0.4-1.4-1.5-2.1-3.3-1.6l-3.6,1L117.1,42z"/>
	<path d="M138,34.6l-3.8,1.1l-0.7-2.5c2.4-0.8,3.9-2.3,3.6-4.7l3-0.9l4.8,16.6l-3.8,1.1L138,34.6z"/>
</g>
</svg>
